<?xml version="1.0" encoding="UTF-8" ?>
<!DOCTYPE svg PUBLIC "-//W3C//DTD SVG 1.1//EN" "http://www.w3.org/Graphics/SVG/1.1/DTD/svg11.dtd">
<svg width="1024pt" height="1024pt" viewBox="0 0 1024 1024" version="1.1" xmlns="http://www.w3.org/2000/svg">
<g id="#46627680">
<path fill="#466276" opacity="0.50" d=" M 135.47 392.47 C 158.44 372.29 187.74 359.81 217.98 355.96 C 219.51 355.73 221.07 355.86 222.60 356.11 C 195.48 359.30 168.88 368.52 146.73 384.70 C 138.06 390.67 130.80 398.35 122.96 405.30 C 126.08 400.14 131.02 396.42 135.47 392.47 Z" />
<path fill="#466276" opacity="0.50" d=" M 256.03 356.09 C 260.56 356.10 265.21 356.84 269.24 358.98 C 274.27 361.81 275.52 369.03 272.75 373.83 C 253.80 392.53 257.67 427.01 278.01 443.27 C 269.00 438.37 264.02 428.37 261.58 418.79 C 257.99 403.87 259.55 386.10 270.88 374.77 C 274.49 371.17 274.11 364.85 270.73 361.25 C 267.07 357.79 261.66 357.81 257.10 356.37 L 256.03 356.09 Z" />
</g>
<g id="#005fb0fe">
<path fill="#005fb0" opacity="1.00" d=" M 146.73 384.70 C 168.88 368.52 195.48 359.30 222.60 356.11 C 234.02 354.66 245.71 354.65 257.10 356.37 C 261.66 357.81 267.07 357.79 270.73 361.25 C 274.11 364.85 274.49 371.17 270.88 374.77 C 259.55 386.10 257.99 403.87 261.58 418.79 C 264.02 428.37 269.00 438.37 278.01 443.27 C 278.42 443.59 279.26 444.22 279.68 444.54 C 280.57 445.41 281.36 446.58 282.68 446.86 C 283.63 447.14 284.62 447.23 285.60 447.41 C 286.78 450.75 287.47 454.36 286.20 457.79 C 284.41 461.01 283.52 465.05 286.28 468.04 L 286.74 468.87 L 286.96 469.31 C 290.08 485.56 303.68 499.55 320.45 501.24 L 321.26 501.45 C 322.71 502.06 324.17 502.65 325.66 503.18 C 326.54 503.53 327.22 504.12 327.70 504.96 C 328.98 506.84 330.30 508.72 331.90 510.36 C 332.09 510.56 332.47 510.95 332.66 511.15 C 334.83 513.38 337.40 515.16 340.03 516.82 C 343.66 519.82 348.34 520.85 352.96 520.96 C 358.72 521.06 365.15 522.18 370.12 518.50 L 370.85 518.29 C 374.45 518.06 378.08 518.38 381.58 519.23 L 382.22 519.68 C 386.98 534.17 379.85 548.87 378.59 563.32 C 378.50 563.56 378.33 564.02 378.24 564.26 C 373.80 572.60 371.29 581.88 365.94 589.77 C 361.76 597.47 355.96 604.10 351.47 611.60 C 351.22 612.02 350.71 612.85 350.46 613.27 C 348.04 612.86 346.80 615.19 347.24 617.29 L 346.97 618.06 L 346.73 618.75 L 345.80 618.87 C 344.71 618.97 344.07 619.61 343.89 620.78 C 343.73 621.04 343.40 621.56 343.24 621.82 L 342.58 622.40 C 338.55 623.58 335.57 626.55 333.88 630.34 C 332.17 631.76 330.42 633.15 328.64 634.51 C 321.27 639.11 313.96 643.90 307.12 649.27 C 306.85 649.44 306.31 649.77 306.04 649.94 C 292.91 655.50 279.87 661.27 266.00 664.81 L 265.35 665.04 C 256.78 665.75 248.25 666.94 239.72 668.05 C 235.00 668.50 230.27 668.31 225.54 668.40 L 224.36 668.27 C 209.91 666.38 195.61 663.74 181.74 659.15 C 180.90 658.79 180.07 658.43 179.23 658.09 C 176.86 656.81 174.35 655.84 171.76 655.12 C 165.31 652.31 158.95 649.18 153.14 645.18 C 149.65 641.57 145.46 638.74 140.78 636.91 C 140.49 636.75 139.92 636.44 139.63 636.29 C 138.05 635.38 136.52 634.38 135.18 633.15 L 134.64 632.62 C 131.10 626.81 125.85 622.36 120.65 618.10 C 120.44 617.82 120.01 617.25 119.80 616.97 C 118.65 615.18 117.33 613.50 115.95 611.89 L 115.69 611.55 C 115.63 609.86 114.70 607.89 112.72 608.07 L 112.50 607.62 C 111.36 605.09 109.70 602.86 107.75 600.92 C 106.83 599.90 105.88 598.92 104.97 597.90 C 104.79 597.46 104.41 596.58 104.23 596.14 L 103.95 595.28 C 104.50 593.52 103.79 591.70 102.10 590.94 L 101.67 590.60 C 100.12 586.61 98.32 582.73 96.26 578.98 L 95.93 578.23 C 92.17 568.98 89.20 559.45 85.97 550.01 L 85.78 549.28 C 85.36 540.25 82.85 531.49 82.51 522.45 C 80.50 508.56 83.57 494.70 84.45 480.85 L 84.62 480.08 C 86.27 476.46 87.36 472.62 87.57 468.64 L 87.78 468.06 C 90.15 463.87 92.10 459.38 92.52 454.52 L 92.63 453.90 C 94.76 453.63 95.15 451.25 94.50 449.56 C 98.91 437.73 106.29 427.37 113.14 416.88 C 113.34 416.69 113.74 416.32 113.94 416.14 C 115.76 414.80 117.16 413.03 118.27 411.08 C 118.43 410.86 118.76 410.42 118.92 410.20 C 120.04 408.89 121.15 407.57 122.20 406.20 C 122.39 405.98 122.77 405.53 122.96 405.30 C 130.80 398.35 138.06 390.67 146.73 384.70 M 107.75 452.87 C 82.48 507.39 96.11 577.73 141.02 617.98 C 164.13 638.80 195.86 650.28 226.98 647.26 C 289.48 643.79 343.96 595.12 360.49 535.71 C 357.37 535.22 354.21 535.01 351.06 535.07 C 349.73 535.35 348.40 535.62 347.07 535.90 C 345.71 535.00 344.35 534.10 343.00 533.19 C 336.13 530.07 329.27 526.56 323.95 521.08 C 321.79 519.16 320.06 516.26 316.97 515.85 C 290.06 512.23 270.10 484.69 272.19 458.11 C 250.71 442.18 243.14 411.35 251.81 386.54 C 253.53 381.88 256.95 377.90 257.65 372.87 C 197.20 362.39 133.25 397.44 107.75 452.87 Z" />
</g>
<g id="#4d667378">
<path fill="#4d6673" opacity="0.47" d=" M 329.39 365.11 C 331.48 360.87 337.16 362.25 341.00 361.91 C 344.66 362.34 350.09 360.55 352.05 364.77 C 352.37 371.34 352.33 378.05 351.38 384.59 C 351.28 378.72 351.83 372.85 351.48 366.99 C 351.43 365.34 350.76 363.14 348.74 363.22 C 343.34 362.69 337.78 362.61 332.43 363.51 C 330.03 364.18 330.13 366.94 330.06 368.93 C 330.08 374.28 329.30 379.88 331.37 384.98 C 330.94 384.78 330.10 384.37 329.68 384.16 C 328.45 377.90 328.87 371.42 329.39 365.11 Z" />
</g>
<g id="#08b4fefe">
<path fill="#08b4fe" opacity="1.00" d=" M 332.43 363.51 C 337.78 362.61 343.34 362.69 348.74 363.22 C 350.76 363.14 351.43 365.34 351.48 366.99 C 351.83 372.85 351.28 378.72 351.38 384.59 C 344.71 384.82 338.03 384.73 331.37 384.98 C 329.30 379.88 330.08 374.28 330.06 368.93 C 330.13 366.94 330.03 364.18 332.43 363.51 Z" />
</g>
<g id="#06a8fcfe">
<path fill="#06a8fc" opacity="1.00" d=" M 107.75 452.87 C 133.25 397.44 197.20 362.39 257.65 372.87 C 256.95 377.90 253.53 381.88 251.81 386.54 C 243.14 411.35 250.71 442.18 272.19 458.11 C 270.10 484.69 290.06 512.23 316.97 515.85 C 320.06 516.26 321.79 519.16 323.95 521.08 C 329.27 526.56 336.13 530.07 343.00 533.19 C 337.10 548.83 329.64 564.06 319.16 577.18 C 316.60 580.32 314.01 585.57 317.24 589.07 C 319.91 589.61 321.68 587.01 323.37 585.39 C 336.03 570.79 344.44 553.07 351.06 535.07 C 354.21 535.01 357.37 535.22 360.49 535.71 C 343.96 595.12 289.48 643.79 226.98 647.26 C 195.86 650.28 164.13 638.80 141.02 617.98 C 96.11 577.73 82.48 507.39 107.75 452.87 M 193.48 416.61 C 182.38 417.83 174.29 430.32 177.99 440.91 C 180.00 448.41 187.24 453.93 194.98 454.02 C 205.78 454.30 215.39 443.74 213.88 432.98 C 213.01 423.21 203.29 415.07 193.48 416.61 M 235.35 476.35 C 228.24 478.77 225.30 488.77 230.67 494.29 C 235.44 500.76 246.99 498.56 249.02 490.78 C 252.28 482.51 243.90 473.17 235.35 476.35 M 152.37 482.40 C 141.23 484.70 132.34 495.57 133.06 507.07 C 133.60 517.79 142.03 527.82 152.98 528.77 C 166.67 530.34 180.24 517.88 179.05 503.96 C 179.08 490.67 165.47 479.33 152.37 482.40 M 275.51 540.59 C 265.02 541.58 256.25 551.42 256.83 562.02 C 256.49 574.57 270.18 584.90 282.18 581.28 C 293.76 578.83 301.14 565.20 296.83 554.17 C 293.95 545.41 284.64 539.58 275.51 540.59 M 188.35 560.44 C 180.28 562.56 174.41 570.68 174.82 579.01 C 174.64 589.19 183.54 598.99 194.00 598.36 C 205.89 598.82 215.58 586.08 212.22 574.73 C 209.96 564.36 198.64 557.31 188.35 560.44 M 299.38 598.46 C 295.08 599.65 291.62 602.65 287.83 604.86 C 272.38 614.84 254.56 621.65 236.09 622.54 C 231.81 622.81 227.47 622.25 223.25 623.10 C 219.75 625.32 222.15 631.02 226.04 631.01 C 253.20 632.79 280.13 621.92 301.16 605.22 C 304.39 603.45 303.34 597.78 299.38 598.46 Z" />
</g>
<g id="#292c2d2f">
<path fill="#292c2d" opacity="0.18" d=" M 331.37 384.98 C 338.03 384.73 344.71 384.82 351.38 384.59 C 349.30 387.10 345.79 385.42 343.02 385.70 C 339.16 385.26 334.93 386.99 331.37 384.98 Z" />
</g>
<g id="#424a4e51">
<path fill="#424a4e" opacity="0.32" d=" M 293.96 395.87 C 294.49 393.91 295.63 391.96 297.95 392.05 C 305.99 391.92 314.08 391.65 322.10 392.22 C 326.56 392.46 326.70 397.61 326.62 400.97 C 326.36 409.27 327.28 417.65 325.85 425.88 C 319.06 427.82 311.97 425.87 305.04 426.61 C 300.74 426.86 294.16 427.70 293.35 421.88 C 292.97 413.57 292.89 405.04 293.98 396.78 C 295.39 406.22 291.28 417.18 296.40 425.59 C 305.44 426.26 314.57 426.13 323.62 425.65 C 324.34 424.68 325.52 423.85 325.61 422.55 C 326.21 413.91 326.32 405.15 325.54 396.52 C 323.92 391.20 317.15 393.19 312.99 392.62 C 306.70 393.29 298.64 390.37 293.96 395.87 Z" />
</g>
<g id="#08b3fefe">
<path fill="#08b3fe" opacity="1.00" d=" M 293.96 395.87 C 298.64 390.37 306.70 393.29 312.99 392.62 C 317.15 393.19 323.92 391.20 325.54 396.52 C 324.92 405.18 324.75 413.89 325.61 422.55 C 325.52 423.85 324.34 424.68 323.62 425.65 C 314.58 424.68 305.44 424.79 296.40 425.59 C 291.28 417.18 295.39 406.22 293.98 396.78 L 293.96 395.87 Z" />
</g>
<g id="#49b6ebec">
<path fill="#49b6eb" opacity="0.93" d=" M 325.54 396.52 C 326.32 405.15 326.21 413.91 325.61 422.55 C 324.75 413.89 324.92 405.18 325.54 396.52 Z" />
</g>
<g id="#3b45536e">
<path fill="#3b4553" opacity="0.43" d=" M 445.11 424.17 C 465.51 386.75 529.30 388.25 548.25 426.46 C 548.62 427.90 549.43 430.35 547.47 430.96 C 548.63 427.64 546.41 424.80 544.60 422.25 C 543.34 420.40 541.88 418.70 540.33 417.09 C 538.62 415.15 536.79 413.33 534.84 411.65 C 533.76 410.65 532.64 409.71 531.45 408.87 C 513.95 396.35 489.08 394.46 469.70 403.58 L 469.13 403.85 C 466.76 404.80 464.52 406.05 462.43 407.51 L 461.95 407.74 C 460.58 407.78 459.71 408.46 459.35 409.78 C 459.03 410.00 458.38 410.45 458.06 410.68 C 454.56 412.62 451.80 415.55 449.88 419.03 L 449.55 419.48 C 448.08 421.06 446.54 422.56 445.11 424.17 Z" />
</g>
<g id="#021767fb">
<path fill="#021767" opacity="1.00" d=" M 469.70 403.58 C 489.08 394.46 513.95 396.35 531.45 408.87 C 523.28 405.92 515.72 401.06 506.87 400.31 C 494.38 397.89 481.79 400.45 469.70 403.58 Z" />
</g>
<g id="#003c7ffe">
<path fill="#003c7f" opacity="1.00" d=" M 469.70 403.58 C 481.79 400.45 494.38 397.89 506.87 400.31 C 515.72 401.06 523.28 405.92 531.45 408.87 C 532.64 409.71 533.76 410.65 534.84 411.65 C 536.00 414.08 537.88 415.95 540.33 417.09 C 541.88 418.70 543.34 420.40 544.60 422.25 C 545.40 424.47 546.10 426.73 546.82 428.98 C 541.05 432.13 534.45 433.89 529.55 438.47 C 527.40 435.01 525.19 431.46 521.76 429.12 C 521.35 428.78 520.54 428.10 520.13 427.75 C 519.60 427.03 519.06 426.33 518.51 425.64 C 511.57 417.92 498.42 415.79 489.06 419.64 L 488.65 419.60 C 481.01 418.76 474.25 424.13 469.20 429.29 C 456.72 444.08 455.72 467.30 466.75 483.19 C 471.42 489.60 478.27 495.11 486.43 495.84 L 487.11 496.01 C 487.82 497.40 490.13 498.26 490.86 496.40 C 491.17 496.52 491.78 496.76 492.08 496.88 C 497.99 499.55 504.80 497.84 510.28 494.94 L 510.83 494.74 C 513.05 495.14 515.17 494.21 516.07 492.08 L 516.36 491.78 C 519.84 490.56 522.71 488.24 524.40 484.94 C 524.85 484.28 525.32 483.62 525.78 482.97 C 526.97 482.36 528.46 481.40 528.18 479.84 L 528.83 479.99 C 534.60 483.48 540.75 486.22 546.78 489.22 C 545.51 491.87 544.31 494.55 543.05 497.20 C 542.86 497.41 542.49 497.82 542.30 498.03 C 539.88 499.82 537.71 501.92 535.95 504.37 C 535.74 504.52 535.31 504.83 535.10 504.99 C 533.07 506.02 531.02 506.99 529.05 508.11 C 513.25 518.12 492.90 519.27 475.33 513.69 C 468.56 511.76 463.18 507.07 457.02 503.93 C 456.61 503.72 455.80 503.31 455.40 503.10 C 453.34 502.12 451.47 500.33 451.10 497.99 C 450.94 496.30 450.05 493.83 447.88 494.53 L 447.59 493.72 C 445.10 486.91 441.07 480.72 439.50 473.57 C 436.82 464.49 438.20 454.98 437.57 445.69 L 437.71 444.97 C 439.95 440.37 441.46 435.49 442.65 430.53 C 443.03 429.78 443.41 429.04 443.81 428.30 C 446.19 425.68 448.13 422.72 449.55 419.48 L 449.88 419.03 C 453.00 416.66 455.72 413.82 458.06 410.68 C 458.38 410.45 459.03 410.00 459.35 409.78 C 460.82 409.87 461.69 409.19 461.95 407.74 L 462.43 407.51 C 464.86 406.68 467.13 405.46 469.13 403.85 L 469.70 403.58 Z" />
</g>
<g id="#02155ff5">
<path fill="#02155f" opacity="0.96" d=" M 462.43 407.51 C 464.52 406.05 466.76 404.80 469.13 403.85 C 467.13 405.46 464.86 406.68 462.43 407.51 Z" />
</g>
<g id="#5a5f6063">
<path fill="#5a5f60" opacity="0.39" d=" M 358.67 405.61 C 366.31 404.27 374.18 405.08 381.91 405.23 C 381.91 405.57 381.92 406.27 381.92 406.61 C 375.29 405.79 368.60 405.82 361.93 405.79 C 360.19 405.65 358.99 407.47 359.11 409.06 C 358.82 414.82 359.17 420.59 358.90 426.36 C 357.40 419.63 358.33 412.47 358.67 405.61 Z" />
</g>
<g id="#315f869b">
<path fill="#315f86" opacity="0.61" d=" M 118.92 410.20 C 119.51 408.49 120.69 407.16 122.20 406.20 C 121.15 407.57 120.04 408.89 118.92 410.20 Z" />
</g>
<g id="#09b6fefe">
<path fill="#09b6fe" opacity="1.00" d=" M 359.11 409.06 C 358.99 407.47 360.19 405.65 361.93 405.79 C 368.60 405.82 375.29 405.79 381.92 406.61 C 381.93 407.13 381.94 408.16 381.95 408.67 C 381.96 414.68 382.07 420.69 381.85 426.70 C 380.88 427.42 379.92 428.14 378.97 428.86 C 372.55 427.46 363.66 431.59 358.90 426.36 C 359.17 420.59 358.82 414.82 359.11 409.06 Z" />
</g>
<g id="#3b4c5f83">
<path fill="#3b4c5f" opacity="0.51" d=" M 803.30 406.26 C 810.40 406.85 817.52 405.99 824.59 406.68 C 817.75 407.43 810.87 406.92 804.02 407.10 C 803.49 415.01 804.04 422.94 803.86 430.86 L 803.04 430.92 L 802.96 430.01 C 803.04 422.10 802.34 414.14 803.30 406.26 Z" />
</g>
<g id="#01064ef2">
<path fill="#01064e" opacity="0.95" d=" M 824.59 406.68 C 824.92 406.65 825.58 406.59 825.91 406.56 L 825.92 406.98 C 826.12 414.96 825.91 422.94 826.08 430.92 C 833.28 430.91 840.54 431.45 847.70 430.41 C 847.96 433.76 848.12 437.13 848.02 440.50 C 847.94 442.52 848.02 444.54 848.06 446.57 C 847.88 447.39 847.52 449.02 847.35 449.84 C 840.29 449.69 833.16 450.47 826.17 449.30 C 832.77 446.83 840.05 449.09 846.93 448.05 C 847.17 442.78 847.10 437.50 846.74 432.24 C 839.57 431.81 832.39 432.52 825.23 431.81 C 824.47 424.01 825.18 416.18 824.67 408.37 C 818.17 408.25 811.67 408.25 805.17 408.28 C 804.59 416.09 805.31 423.93 804.78 431.74 C 800.90 431.96 797.03 432.10 793.16 432.18 C 792.90 437.49 792.90 442.81 793.11 448.13 C 796.63 448.26 800.15 448.28 803.68 448.20 C 803.64 448.37 803.57 448.72 803.53 448.90 C 799.79 449.27 796.04 449.35 792.29 449.54 C 791.55 443.41 791.90 437.24 792.04 431.10 C 795.70 431.02 799.37 431.05 803.04 430.92 L 803.86 430.86 C 804.04 422.94 803.49 415.01 804.02 407.10 C 810.87 406.92 817.75 407.43 824.59 406.68 Z" />
</g>
<g id="#52535355">
<path fill="#525353" opacity="0.33" d=" M 825.92 406.98 C 827.57 414.45 825.75 422.27 826.87 429.86 C 833.80 430.44 840.83 429.18 847.70 430.41 C 840.54 431.45 833.28 430.91 826.08 430.92 C 825.91 422.94 826.12 414.96 825.92 406.98 Z" />
</g>
<g id="#030e56ef">
<path fill="#030e56" opacity="0.94" d=" M 459.35 409.78 C 459.71 408.46 460.58 407.78 461.95 407.74 C 461.69 409.19 460.82 409.87 459.35 409.78 Z" />
</g>
<g id="#003b7cfe">
<path fill="#003b7c" opacity="1.00" d=" M 805.17 408.28 C 811.67 408.25 818.17 408.25 824.67 408.37 C 825.18 416.18 824.47 424.01 825.23 431.81 C 832.39 432.52 839.57 431.81 846.74 432.24 C 847.10 437.50 847.17 442.78 846.93 448.05 C 840.05 449.09 832.77 446.83 826.17 449.30 L 826.03 449.65 C 823.75 457.20 825.53 465.25 825.03 473.01 C 825.49 480.84 823.23 489.89 828.43 496.61 C 833.09 502.00 840.81 500.69 847.06 499.86 C 847.43 504.80 847.32 509.78 846.66 514.70 C 840.31 516.97 833.51 517.22 826.84 517.03 C 820.20 515.60 814.33 512.03 809.74 507.08 C 809.55 506.82 809.19 506.31 809.01 506.05 C 808.66 505.55 807.97 504.54 807.63 504.04 C 807.26 503.17 806.91 502.31 806.56 501.46 C 802.66 484.58 806.95 466.92 803.91 450.12 C 803.81 449.82 803.63 449.21 803.53 448.90 C 803.57 448.72 803.64 448.37 803.68 448.20 C 800.15 448.28 796.63 448.26 793.11 448.13 C 792.90 442.81 792.90 437.49 793.16 432.18 C 797.03 432.10 800.90 431.96 804.78 431.74 C 805.31 423.93 804.59 416.09 805.17 408.28 Z" />
<path fill="#003b7c" opacity="1.00" d=" M 733.46 432.49 C 746.08 429.47 759.18 430.22 771.45 434.41 L 772.04 434.72 C 775.52 438.52 780.72 441.21 782.12 446.51 C 777.97 449.47 773.73 452.34 769.09 454.52 C 764.97 451.11 761.54 446.16 755.97 445.13 C 750.69 444.25 744.48 444.52 740.41 448.43 C 737.00 451.64 736.92 458.23 741.48 460.48 C 748.12 464.19 755.82 465.65 763.32 466.56 L 764.01 466.70 C 764.56 466.94 765.67 467.42 766.22 467.66 L 766.84 467.84 C 769.52 469.60 772.49 470.78 775.63 471.44 L 776.14 471.62 C 776.37 473.13 777.26 473.80 778.80 473.63 C 779.35 474.18 779.90 474.73 780.45 475.30 C 782.14 478.38 783.18 481.74 784.46 484.99 C 784.71 484.98 785.20 484.95 785.44 484.94 L 786.12 484.89 L 786.07 485.61 L 786.00 486.57 C 784.29 493.91 783.43 502.14 777.40 507.42 C 762.47 521.71 738.23 519.05 722.12 508.15 C 722.16 506.50 721.42 505.79 719.92 506.03 C 720.62 504.29 718.72 503.17 717.24 503.28 C 717.10 502.89 716.82 502.11 716.68 501.72 C 718.10 499.61 719.87 497.74 721.89 496.18 L 722.39 495.84 C 724.49 494.69 726.41 493.27 728.14 491.62 L 728.88 491.06 C 733.96 492.47 736.19 498.08 741.13 499.77 C 747.82 502.40 756.35 503.11 762.22 498.25 C 766.13 495.28 766.27 488.60 762.23 485.68 L 761.76 485.28 C 751.53 478.38 737.87 479.65 727.56 472.54 C 718.38 467.86 718.66 456.28 719.36 447.46 L 719.52 446.66 C 721.80 446.06 722.82 443.71 722.28 441.53 L 722.71 441.09 C 724.55 439.35 726.31 437.51 728.01 435.63 L 728.49 435.47 C 730.44 435.74 732.74 434.93 732.84 432.64 L 733.46 432.49 Z" />
<path fill="#003b7c" opacity="1.00" d=" M 858.18 432.07 C 865.50 432.65 873.02 431.43 880.23 432.78 C 885.63 444.96 889.88 457.70 894.99 470.05 C 897.38 475.40 898.40 481.48 902.22 486.10 C 902.76 486.84 903.32 487.57 903.91 488.30 C 908.84 480.53 910.81 471.33 913.99 462.78 L 914.27 462.02 C 915.19 459.60 916.04 457.16 916.89 454.72 L 917.12 454.10 C 920.38 447.05 922.50 439.56 925.43 432.37 C 932.54 431.81 939.67 431.98 946.79 432.13 C 935.65 461.43 922.40 489.89 911.18 519.17 C 908.63 526.37 904.83 533.02 901.94 540.07 C 901.78 540.31 901.45 540.78 901.28 541.01 C 898.56 543.13 896.11 545.57 894.07 548.36 C 893.87 548.53 893.46 548.87 893.26 549.04 C 884.44 553.07 874.75 554.66 865.09 553.90 C 864.78 548.44 864.71 542.98 865.04 537.52 C 867.67 537.08 870.30 536.55 872.87 535.80 C 873.18 535.72 873.79 535.55 874.10 535.47 C 874.78 536.90 876.84 536.52 876.95 534.92 L 877.76 534.97 C 879.21 535.31 880.84 534.36 881.05 532.83 L 881.62 532.77 C 883.77 532.92 884.85 530.91 885.27 529.11 C 885.69 528.08 886.17 527.08 886.66 526.08 C 888.03 525.63 889.34 524.48 889.07 522.89 L 889.09 522.23 C 890.35 519.60 891.84 516.90 891.63 513.88 L 891.61 513.08 C 891.55 510.45 890.28 508.12 889.05 505.89 L 888.78 505.29 C 887.56 500.54 885.55 496.06 883.06 491.86 L 882.77 491.20 C 881.89 489.06 881.00 486.93 880.15 484.78 L 879.99 484.23 C 880.16 482.44 879.30 480.76 877.70 479.96 C 877.39 479.09 877.07 478.23 876.76 477.38 C 875.97 475.19 875.09 473.05 874.10 470.96 L 873.83 470.35 C 872.95 468.14 871.95 466.00 870.85 463.91 L 870.61 463.32 C 869.72 459.23 868.16 455.32 865.84 451.82 C 865.46 451.01 865.09 450.21 864.73 449.41 C 865.24 447.57 864.46 445.64 862.61 444.99 C 862.39 444.03 862.18 443.07 862.00 442.11 C 861.88 440.49 861.10 439.00 859.73 438.14 C 859.38 437.09 859.06 436.03 858.77 434.98 C 858.46 434.33 857.85 433.03 857.54 432.38 L 858.18 432.07 Z" />
<path fill="#003b7c" opacity="1.00" d=" M 447.68 543.59 C 453.93 543.12 460.20 543.10 466.45 543.57 C 467.72 578.47 466.63 613.45 467.83 648.33 C 467.87 648.65 467.93 649.29 467.97 649.61 L 467.42 649.55 C 460.82 648.77 454.17 649.20 447.54 648.84 C 446.28 633.28 449.11 617.61 446.89 602.12 C 447.48 582.62 447.80 563.10 447.68 543.59 Z" />
<path fill="#003b7c" opacity="1.00" d=" M 484.20 543.33 C 514.41 543.45 544.62 543.06 574.83 543.24 C 575.22 549.48 574.89 555.73 575.10 561.98 L 574.25 561.82 C 563.23 560.64 551.80 560.34 540.83 561.70 C 539.40 562.64 539.10 564.35 539.10 565.94 C 539.05 593.65 539.57 621.39 539.10 649.09 C 532.72 649.52 526.32 649.52 519.94 649.10 C 519.17 620.04 521.00 590.86 519.39 561.86 C 518.98 561.76 518.16 561.56 517.75 561.45 C 506.56 560.54 495.29 561.63 484.07 560.97 C 483.83 555.09 483.84 549.20 484.20 543.33 Z" />
<path fill="#003b7c" opacity="1.00" d=" M 447.59 650.35 C 454.18 649.76 460.81 649.70 467.42 649.55 L 467.50 651.12 C 465.73 651.13 463.97 651.15 462.21 651.08 C 457.34 650.75 452.43 651.06 447.59 650.35 Z" />
</g>
<g id="#2b394245">
<path fill="#2b3942" opacity="0.27" d=" M 381.95 408.67 C 383.11 415.24 383.62 422.29 381.81 428.79 C 381.10 428.81 379.68 428.85 378.97 428.86 C 379.92 428.14 380.88 427.42 381.85 426.70 C 382.07 420.69 381.96 414.68 381.95 408.67 Z" />
</g>
<g id="#296095b6">
<path fill="#296095" opacity="0.71" d=" M 113.94 416.14 C 114.93 414.10 116.36 412.31 118.27 411.08 C 117.16 413.03 115.76 414.80 113.94 416.14 Z" />
</g>
<g id="#04135cf0">
<path fill="#04135c" opacity="0.94" d=" M 449.88 419.03 C 451.80 415.55 454.56 412.62 458.06 410.68 C 455.72 413.82 453.00 416.66 449.88 419.03 Z" />
</g>
<g id="#001e6afd">
<path fill="#001e6a" opacity="1.00" d=" M 534.84 411.65 C 536.79 413.33 538.62 415.15 540.33 417.09 C 537.88 415.95 536.00 414.08 534.84 411.65 Z" />
</g>
<g id="#0069b5fe">
<path fill="#0069b5" opacity="1.00" d=" M 193.48 416.61 C 203.29 415.07 213.01 423.21 213.88 432.98 C 215.39 443.74 205.78 454.30 194.98 454.02 C 187.24 453.93 180.00 448.41 177.99 440.91 C 174.29 430.32 182.38 417.83 193.48 416.61 Z" />
</g>
<g id="#3d59707f">
<path fill="#3d5970" opacity="0.50" d=" M 102.54 431.51 C 105.83 426.48 108.53 420.87 113.14 416.88 C 106.29 427.37 98.91 437.73 94.50 449.56 C 93.45 450.78 92.66 452.24 92.63 453.90 L 92.52 454.52 C 90.25 458.77 88.58 463.30 87.78 468.06 L 87.57 468.64 C 87.24 469.11 86.60 470.05 86.28 470.52 C 89.09 456.67 95.58 443.73 102.54 431.51 Z" />
</g>
<g id="#01125ef8">
<path fill="#01125e" opacity="0.97" d=" M 489.06 419.64 C 498.42 415.79 511.57 417.92 518.51 425.64 C 516.30 424.35 513.96 423.30 511.68 422.15 L 511.07 421.80 C 510.59 421.57 509.65 421.10 509.17 420.87 L 508.37 420.73 C 502.49 418.97 496.32 418.55 490.26 419.54 L 489.06 419.64 Z" />
</g>
<g id="#021460f8">
<path fill="#021460" opacity="0.97" d=" M 469.20 429.29 C 474.25 424.13 481.01 418.76 488.65 419.60 C 487.63 419.57 486.75 419.93 486.03 420.68 L 484.86 420.95 C 484.35 421.12 483.33 421.47 482.82 421.65 L 481.77 421.99 C 479.98 422.42 478.30 423.20 476.94 424.43 L 476.34 424.90 C 473.30 427.06 470.60 429.66 468.33 432.62 C 468.28 432.67 468.19 432.78 468.14 432.84 C 467.17 433.72 466.38 434.79 466.00 436.06 L 465.53 437.18 C 465.50 437.25 465.45 437.37 465.42 437.43 L 464.99 438.37 C 462.37 443.25 461.33 448.73 460.60 454.16 C 459.61 456.30 459.53 458.66 460.53 460.81 C 461.06 476.60 471.57 490.63 486.43 495.84 C 478.27 495.11 471.42 489.60 466.75 483.19 C 455.72 467.30 456.72 444.08 469.20 429.29 Z" />
</g>
<g id="#34435470">
<path fill="#344354" opacity="0.44" d=" M 490.26 419.54 C 496.32 418.55 502.49 418.97 508.37 420.73 C 502.36 419.82 496.26 420.42 490.26 419.54 Z" />
</g>
<g id="#03125af2">
<path fill="#03125a" opacity="0.95" d=" M 445.11 424.17 C 446.54 422.56 448.08 421.06 449.55 419.48 C 448.13 422.72 446.19 425.68 443.81 428.30 C 444.15 427.09 444.50 425.88 444.86 424.68 L 445.11 424.17 Z" />
</g>
<g id="#454f5868">
<path fill="#454f58" opacity="0.41" d=" M 486.03 420.68 C 486.75 419.93 487.63 419.57 488.65 419.60 C 488.41 421.32 487.54 421.68 486.03 420.68 Z" />
</g>
<g id="#4d565c68">
<path fill="#4d565c" opacity="0.41" d=" M 482.82 421.65 C 483.33 421.47 484.35 421.12 484.86 420.95 C 484.35 421.12 483.33 421.47 482.82 421.65 Z" />
</g>
<g id="#2633425c">
<path fill="#263342" opacity="0.36" d=" M 509.17 420.87 C 509.65 421.10 510.59 421.57 511.07 421.80 C 510.59 421.57 509.65 421.10 509.17 420.87 Z" />
</g>
<g id="#343e485c">
<path fill="#343e48" opacity="0.36" d=" M 476.94 424.43 C 478.30 423.20 479.98 422.42 481.77 421.99 C 482.18 424.12 478.54 425.65 476.94 424.43 Z" />
</g>
<g id="#19202e49">
<path fill="#19202e" opacity="0.29" d=" M 511.68 422.15 C 513.96 423.30 516.30 424.35 518.51 425.64 C 519.06 426.33 519.60 427.03 520.13 427.75 L 520.72 428.62 C 517.32 427.07 514.38 424.70 511.68 422.15 Z" />
</g>
<g id="#01155ff4">
<path fill="#01155f" opacity="0.96" d=" M 544.60 422.25 C 546.41 424.80 548.63 427.64 547.47 430.96 L 546.28 431.24 C 540.34 432.76 535.28 436.41 529.55 438.47 C 534.45 433.89 541.05 432.13 546.82 428.98 C 546.10 426.73 545.40 424.47 544.60 422.25 Z" />
</g>
<g id="#0289e6e6">
<path fill="#0289e6" opacity="0.90" d=" M 296.40 425.59 C 305.44 424.79 314.58 424.68 323.62 425.65 C 314.57 426.13 305.44 426.26 296.40 425.59 Z" />
</g>
<g id="#2b354a75">
<path fill="#2b354a" opacity="0.46" d=" M 440.14 434.18 C 440.89 430.68 442.41 427.34 444.86 424.68 C 444.50 425.88 444.15 427.09 443.81 428.30 C 443.41 429.04 443.03 429.78 442.65 430.53 C 441.83 431.76 440.95 432.95 440.14 434.18 Z" />
</g>
<g id="#20222429">
<path fill="#202224" opacity="0.16" d=" M 468.33 432.62 C 470.60 429.66 473.30 427.06 476.34 424.90 C 474.52 428.24 471.68 430.85 468.33 432.62 Z" />
</g>
<g id="#49535d72">
<path fill="#49535d" opacity="0.45" d=" M 726.87 435.95 C 739.61 424.33 760.27 426.48 774.44 434.57 C 778.89 437.62 784.23 441.61 784.53 447.46 C 782.47 449.01 780.29 450.43 777.84 451.27 C 779.90 449.71 781.92 448.08 783.98 446.51 C 781.64 441.23 777.35 436.99 772.04 434.72 L 771.45 434.41 C 760.06 428.11 745.38 426.99 733.46 432.49 L 732.84 432.64 C 730.99 432.83 729.54 434.02 728.49 435.47 L 728.01 435.63 L 726.87 435.95 Z" />
</g>
<g id="#121e4fbd">
<path fill="#121e4f" opacity="0.74" d=" M 521.01 428.54 L 521.76 429.12 C 525.19 431.46 527.40 435.01 529.55 438.47 L 530.11 439.29 C 528.81 438.67 527.55 438.04 526.28 437.40 C 527.48 436.26 526.25 434.76 525.24 434.06 C 523.53 432.47 522.25 430.49 521.01 428.54 Z" />
</g>
<g id="#343c465b">
<path fill="#343c46" opacity="0.36" d=" M 582.03 438.27 C 590.52 429.92 603.15 427.60 614.63 429.36 C 614.53 436.49 614.26 443.63 614.93 450.74 C 610.02 450.91 605.08 451.27 600.20 450.66 L 601.28 449.93 L 601.94 449.82 C 605.75 449.82 609.55 450.15 613.36 450.40 C 614.44 444.00 614.09 437.46 613.57 431.02 C 606.97 429.10 599.71 429.72 593.40 432.40 C 592.57 432.72 591.76 433.10 590.99 433.53 C 587.68 435.17 584.85 437.56 582.09 439.99 C 582.08 439.56 582.04 438.70 582.03 438.27 Z" />
</g>
<g id="#75777779">
<path fill="#757777" opacity="0.47" d=" M 682.42 429.67 C 689.69 430.67 697.25 428.86 704.34 430.75 C 696.55 431.23 688.73 430.93 680.93 430.97 C 681.30 430.65 682.05 430.00 682.42 429.67 Z" />
</g>
<g id="#01196bfb">
<path fill="#01196b" opacity="1.00" d=" M 733.46 432.49 C 745.38 426.99 760.06 428.11 771.45 434.41 C 759.18 430.22 746.08 429.47 733.46 432.49 Z" />
</g>
<g id="#4a50535c">
<path fill="#4a5053" opacity="0.36" d=" M 924.53 430.74 C 932.07 428.69 940.75 430.35 948.70 430.23 C 948.21 436.64 945.31 442.80 941.99 448.22 C 943.91 442.51 946.67 437.10 948.22 431.25 C 940.33 430.71 932.41 431.29 924.53 430.74 Z" />
</g>
<g id="#5e626670">
<path fill="#5e6266" opacity="0.44" d=" M 560.74 430.80 C 566.23 428.83 572.34 430.55 578.09 430.00 C 581.95 429.40 582.01 433.80 581.81 436.46 C 581.44 434.69 581.02 432.93 580.62 431.17 C 574.00 430.79 567.36 431.24 560.74 430.80 Z" />
</g>
<g id="#011163fa">
<path fill="#011163" opacity="0.98" d=" M 593.40 432.40 C 599.71 429.72 606.97 429.10 613.57 431.02 C 612.81 437.45 612.79 443.95 613.36 450.40 C 609.55 450.15 605.75 449.82 601.94 449.82 C 605.26 449.19 608.64 448.97 612.02 448.78 C 612.27 443.14 612.20 437.49 611.88 431.86 C 605.74 430.69 599.55 431.93 593.40 432.40 Z" />
</g>
<g id="#54575a62">
<path fill="#54575a" opacity="0.38" d=" M 623.47 430.29 C 631.24 429.51 639.07 430.08 646.87 429.89 L 646.33 430.91 C 638.92 431.17 631.51 430.84 624.11 431.11 C 623.87 444.41 624.08 457.71 624.01 471.00 C 624.13 478.09 623.30 485.37 625.59 492.22 L 625.72 492.89 C 625.78 493.71 625.89 495.34 625.94 496.15 C 622.20 488.02 623.97 478.68 623.02 470.01 C 623.60 456.78 622.13 443.49 623.47 430.29 Z" />
</g>
<g id="#4e58606d">
<path fill="#4e5860" opacity="0.43" d=" M 791.37 430.28 C 795.21 429.91 799.10 429.68 802.96 430.01 L 803.04 430.92 C 799.37 431.05 795.70 431.02 792.04 431.10 C 791.90 437.24 791.55 443.41 792.29 449.54 C 793.91 449.73 795.53 449.94 797.17 450.12 C 795.35 450.37 793.51 450.41 791.69 450.38 C 790.19 443.79 790.92 436.95 791.37 430.28 Z" />
</g>
<g id="#4c515a6f">
<path fill="#4c515a" opacity="0.44" d=" M 856.54 430.65 C 864.27 429.49 873.04 429.25 880.51 430.89 C 873.12 431.75 865.27 429.64 858.18 432.07 L 857.54 432.38 C 855.90 432.88 857.38 435.44 858.77 434.98 C 859.06 436.03 859.38 437.09 859.73 438.14 C 859.68 438.56 859.59 439.41 859.54 439.83 C 857.77 437.07 856.27 434.03 856.54 430.65 Z" />
</g>
<g id="#020d59f7">
<path fill="#020d59" opacity="0.97" d=" M 440.14 434.18 C 440.95 432.95 441.83 431.76 442.65 430.53 C 441.46 435.49 439.95 440.37 437.71 444.97 C 438.30 441.55 438.88 438.12 439.80 434.78 L 440.14 434.18 Z" />
</g>
<g id="#212a3444">
<path fill="#212a34" opacity="0.27" d=" M 529.55 438.47 C 535.28 436.41 540.34 432.76 546.28 431.24 C 541.13 434.36 535.76 437.21 530.11 439.29 L 529.55 438.47 Z" />
</g>
<g id="#01074df0">
<path fill="#01074d" opacity="0.94" d=" M 560.74 430.80 C 567.36 431.24 574.00 430.79 580.62 431.17 C 581.02 432.93 581.44 434.69 581.81 436.46 C 581.86 436.92 581.97 437.82 582.03 438.27 C 582.04 438.70 582.08 439.56 582.09 439.99 C 584.85 437.56 587.68 435.17 590.99 433.53 C 588.19 436.35 585.26 439.04 581.98 441.27 C 581.06 438.29 580.23 435.29 579.46 432.27 C 573.72 431.72 567.94 431.86 562.20 432.23 C 562.18 459.74 562.03 487.26 562.26 514.77 C 569.00 514.95 575.83 515.59 582.50 514.24 C 582.61 514.71 582.82 515.66 582.93 516.14 C 575.61 515.67 568.26 515.76 560.93 515.73 L 560.95 514.63 C 560.91 487.00 561.24 459.36 560.79 431.74 L 560.74 430.80 Z" />
</g>
<g id="#003d80fe">
<path fill="#003d80" opacity="1.00" d=" M 593.40 432.40 C 599.55 431.93 605.74 430.69 611.88 431.86 C 612.20 437.49 612.27 443.14 612.02 448.78 C 608.64 448.97 605.26 449.19 601.94 449.82 L 601.28 449.93 C 596.46 450.52 590.94 451.83 588.39 456.43 C 588.10 456.90 587.52 457.83 587.23 458.29 C 585.24 461.32 582.78 464.30 583.21 468.19 C 581.00 483.36 582.20 498.94 582.50 514.24 C 575.83 515.59 569.00 514.95 562.26 514.77 C 562.03 487.26 562.18 459.74 562.20 432.23 C 567.94 431.86 573.72 431.72 579.46 432.27 C 580.23 435.29 581.06 438.29 581.98 441.27 C 585.26 439.04 588.19 436.35 590.99 433.53 C 591.76 433.10 592.57 432.72 593.40 432.40 Z" />
</g>
<g id="#000758f9">
<path fill="#000758" opacity="0.98" d=" M 624.11 431.11 C 631.51 430.84 638.92 431.17 646.33 430.91 L 646.29 432.19 C 645.59 449.75 646.38 467.34 645.91 484.91 C 643.92 467.39 645.88 449.62 645.01 432.01 C 638.41 431.82 631.81 431.87 625.22 432.22 C 625.15 452.22 625.12 472.23 625.59 492.22 C 623.30 485.37 624.13 478.09 624.01 471.00 C 624.08 457.71 623.87 444.41 624.11 431.11 Z" />
</g>
<g id="#010b5af0">
<path fill="#010b5a" opacity="0.94" d=" M 680.93 430.97 C 688.73 430.93 696.55 431.23 704.34 430.75 C 703.62 458.62 704.21 486.53 703.98 514.41 C 703.97 514.76 703.95 515.47 703.94 515.83 C 696.85 515.27 688.47 516.72 682.18 515.02 L 682.15 514.04 C 689.00 515.46 696.03 515.10 702.99 514.92 C 703.20 487.32 703.20 459.70 702.99 432.09 C 696.01 431.85 689.02 431.71 682.05 432.19 C 682.04 433.35 682.04 434.51 682.05 435.68 C 681.83 439.20 681.38 442.70 681.11 446.22 C 681.04 441.37 680.95 436.53 680.94 431.69 L 680.93 430.97 Z" />
</g>
<g id="#597a96cd">
<path fill="#597a96" opacity="0.80" d=" M 704.34 430.75 C 705.75 436.40 704.90 442.25 705.05 447.99 C 705.06 470.16 705.09 492.33 705.20 514.50 L 703.98 514.41 C 704.21 486.53 703.62 458.62 704.34 430.75 Z" />
</g>
<g id="#01115ff8">
<path fill="#01115f" opacity="0.97" d=" M 858.18 432.07 C 865.27 429.64 873.12 431.75 880.51 430.89 L 881.07 430.87 C 881.91 433.04 882.87 435.17 883.80 437.31 L 884.03 437.89 C 889.51 454.17 896.85 469.78 902.22 486.10 C 898.40 481.48 897.38 475.40 894.99 470.05 C 889.88 457.70 885.63 444.96 880.23 432.78 C 873.02 431.43 865.50 432.65 858.18 432.07 Z" />
</g>
<g id="#333b424f">
<path fill="#333b42" opacity="0.31" d=" M 881.07 430.87 C 883.43 432.15 883.54 434.95 883.80 437.31 C 882.87 435.17 881.91 433.04 881.07 430.87 Z" />
</g>
<g id="#011665f8">
<path fill="#011665" opacity="0.97" d=" M 924.53 430.74 C 932.41 431.29 940.33 430.71 948.22 431.25 C 946.67 437.10 943.91 442.51 941.99 448.22 L 941.73 448.81 C 939.89 452.48 938.38 456.28 937.10 460.17 L 936.86 460.76 C 935.00 464.44 933.37 468.23 932.06 472.14 L 931.82 472.73 C 928.95 478.73 926.37 484.87 924.15 491.14 L 923.91 491.72 C 920.86 498.11 918.31 504.72 915.90 511.37 L 915.56 512.01 C 914.80 513.17 914.23 514.44 914.00 515.82 L 913.81 516.55 C 911.17 523.23 908.22 529.77 905.34 536.35 L 905.04 536.86 C 904.02 537.95 902.95 538.98 901.94 540.07 C 904.83 533.02 908.63 526.37 911.18 519.17 C 922.40 489.89 935.65 461.43 946.79 432.13 C 939.67 431.98 932.54 431.81 925.43 432.37 C 922.50 439.56 920.38 447.05 917.12 454.10 C 917.35 452.27 917.51 450.43 917.77 448.60 L 918.27 447.99 C 918.47 447.50 918.87 446.51 919.07 446.02 L 919.42 445.05 C 920.08 443.78 920.65 442.47 921.00 441.09 L 921.33 440.07 C 921.48 439.55 921.80 438.52 921.95 438.01 L 922.35 436.91 C 923.01 435.43 923.74 433.95 924.12 432.36 C 924.22 431.95 924.42 431.15 924.53 430.74 Z" />
</g>
<g id="#4e606f87">
<path fill="#4e606f" opacity="0.53" d=" M 468.14 432.84 C 468.19 432.78 468.28 432.67 468.33 432.62 C 468.28 432.67 468.19 432.78 468.14 432.84 Z" />
<path fill="#4e606f" opacity="0.53" d=" M 719.38 465.53 C 719.40 465.57 719.45 465.66 719.47 465.71 C 719.45 465.66 719.40 465.57 719.38 465.53 Z" />
</g>
<g id="#46474749">
<path fill="#464747" opacity="0.29" d=" M 559.99 446.00 C 560.19 441.25 559.23 436.34 560.79 431.74 C 561.24 459.36 560.91 487.00 560.95 514.63 L 560.09 515.41 C 559.83 492.29 560.43 469.14 559.99 446.00 Z" />
</g>
<g id="#3c6394e8">
<path fill="#3c6394" opacity="0.91" d=" M 613.57 431.02 C 614.09 437.46 614.44 444.00 613.36 450.40 C 612.79 443.95 612.81 437.45 613.57 431.02 Z" />
</g>
<g id="#004085fe">
<path fill="#004085" opacity="1.00" d=" M 625.22 432.22 C 631.81 431.87 638.41 431.82 645.01 432.01 C 645.88 449.62 643.92 467.39 645.91 484.91 C 645.95 485.18 646.02 485.71 646.06 485.97 C 645.80 493.92 653.52 499.46 660.97 499.16 C 671.88 499.91 682.19 490.60 682.29 479.61 C 683.10 465.01 683.11 450.26 682.05 435.68 C 682.04 434.51 682.04 433.35 682.05 432.19 C 689.02 431.71 696.01 431.85 702.99 432.09 C 703.20 459.70 703.20 487.32 702.99 514.92 C 696.03 515.10 689.00 515.46 682.15 514.04 L 682.12 513.01 C 683.14 511.19 683.96 508.87 682.57 507.01 L 682.09 507.11 C 681.68 507.20 680.87 507.39 680.46 507.49 C 673.82 511.58 667.47 517.35 659.07 516.97 C 650.92 518.16 643.95 513.49 636.48 511.31 C 635.63 510.95 634.86 510.43 634.09 509.98 C 638.14 510.79 635.41 507.56 633.32 507.00 C 632.97 506.54 632.27 505.61 631.93 505.15 C 631.51 503.44 630.50 502.02 629.15 500.94 L 628.90 500.45 C 628.02 497.85 627.00 495.31 625.72 492.89 L 625.59 492.22 C 625.12 472.23 625.15 452.22 625.22 432.22 Z" />
</g>
<g id="#4b607395">
<path fill="#4b6073" opacity="0.58" d=" M 646.29 432.19 L 646.80 431.20 C 647.55 448.79 646.47 466.44 647.34 484.02 C 647.49 492.78 656.63 498.55 664.80 496.89 C 671.00 496.21 675.55 491.57 679.07 486.82 C 675.11 496.49 662.28 501.12 653.19 495.84 C 649.36 493.88 647.78 489.62 646.06 485.97 C 646.02 485.71 645.95 485.18 645.91 484.91 C 646.38 467.34 645.59 449.75 646.29 432.19 Z" />
</g>
<g id="#34353638">
<path fill="#343536" opacity="0.22" d=" M 679.97 435.95 C 679.79 434.44 680.33 433.03 680.94 431.69 C 680.95 436.53 681.04 441.37 681.11 446.22 C 681.03 456.69 680.73 467.19 681.24 477.65 C 680.90 479.58 680.48 481.50 680.15 483.43 C 679.38 467.61 680.90 451.77 679.97 435.95 Z" />
</g>
<g id="#343f495c">
<path fill="#343f49" opacity="0.36" d=" M 922.35 436.91 C 920.87 435.60 921.94 431.69 924.12 432.36 C 923.74 433.95 923.01 435.43 922.35 436.91 Z" />
</g>
<g id="#29394861">
<path fill="#293948" opacity="0.38" d=" M 466.00 436.06 C 466.38 434.79 467.17 433.72 468.14 432.84 C 469.06 434.12 467.63 436.72 466.00 436.06 Z" />
</g>
<g id="#021965f1">
<path fill="#021965" opacity="0.95" d=" M 728.49 435.47 C 729.54 434.02 730.99 432.83 732.84 432.64 C 732.74 434.93 730.44 435.74 728.49 435.47 Z" />
</g>
<g id="#07165aeb">
<path fill="#07165a" opacity="0.92" d=" M 858.77 434.98 C 857.38 435.44 855.90 432.88 857.54 432.38 C 857.85 433.03 858.46 434.33 858.77 434.98 Z" />
</g>
<g id="#44494c52">
<path fill="#44494c" opacity="0.32" d=" M 525.24 434.06 C 526.25 434.76 527.48 436.26 526.28 437.40 C 524.85 436.62 524.51 435.50 525.24 434.06 Z" />
</g>
<g id="#313b4962">
<path fill="#313b49" opacity="0.38" d=" M 436.98 470.05 C 433.77 458.64 434.79 445.52 439.80 434.78 C 438.88 438.12 438.30 441.55 437.71 444.97 L 437.57 445.69 C 435.14 453.62 436.05 461.97 436.98 470.05 Z" />
</g>
<g id="#041965f3">
<path fill="#041965" opacity="0.95" d=" M 772.04 434.72 C 777.35 436.99 781.64 441.23 783.98 446.51 C 781.92 448.08 779.90 449.71 777.84 451.27 C 776.86 451.96 775.75 452.44 774.67 452.92 C 772.97 453.53 771.45 454.51 769.97 455.52 C 769.00 455.63 768.04 455.72 767.10 455.78 L 766.84 455.32 C 762.72 446.19 749.81 442.77 741.83 448.84 C 738.44 451.28 737.94 456.98 741.78 459.26 C 748.33 463.25 756.35 463.50 763.32 466.56 C 755.82 465.65 748.12 464.19 741.48 460.48 C 736.92 458.23 737.00 451.64 740.41 448.43 C 744.48 444.52 750.69 444.25 755.97 445.13 C 761.54 446.16 764.97 451.11 769.09 454.52 C 773.73 452.34 777.97 449.47 782.12 446.51 C 780.72 441.21 775.52 438.52 772.04 434.72 Z" />
</g>
<g id="#002a79fc">
<path fill="#002a79" opacity="1.00" d=" M 682.05 435.68 C 683.11 450.26 683.10 465.01 682.29 479.61 C 682.03 479.12 681.50 478.14 681.24 477.65 C 680.73 467.19 681.03 456.69 681.11 446.22 C 681.38 442.70 681.83 439.20 682.05 435.68 Z" />
</g>
<g id="#313a465f">
<path fill="#313a46" opacity="0.37" d=" M 718.94 464.60 C 714.67 455.40 717.41 441.90 726.05 436.20 C 724.87 437.78 723.82 439.46 722.71 441.09 L 722.28 441.53 C 720.68 442.79 719.70 444.63 719.52 446.66 L 719.36 447.46 C 717.40 452.98 717.78 458.94 718.94 464.60 Z" />
</g>
<g id="#061b64ea">
<path fill="#061b64" opacity="0.92" d=" M 726.05 436.20 L 726.87 435.95 L 728.01 435.63 C 726.31 437.51 724.55 439.35 722.71 441.09 C 723.82 439.46 724.87 437.78 726.05 436.20 Z" />
</g>
<g id="#3b434954">
<path fill="#3b4349" opacity="0.33" d=" M 465.42 437.43 C 465.45 437.37 465.50 437.25 465.53 437.18 C 465.50 437.25 465.45 437.37 465.42 437.43 Z" />
</g>
<g id="#010f58f3">
<path fill="#010f58" opacity="0.95" d=" M 859.73 438.14 C 861.10 439.00 861.88 440.49 862.00 442.11 C 861.47 441.80 860.42 441.17 859.90 440.86 L 859.54 439.83 C 859.59 439.41 859.68 438.56 859.73 438.14 Z" />
</g>
<g id="#3c485369">
<path fill="#3c4853" opacity="0.41" d=" M 884.03 437.89 C 891.67 453.09 896.51 469.70 903.49 485.20 C 904.57 483.03 905.69 480.88 906.94 478.81 C 905.81 481.93 904.85 485.11 903.91 488.30 C 903.32 487.57 902.76 486.84 902.22 486.10 C 896.85 469.78 889.51 454.17 884.03 437.89 Z" />
</g>
<g id="#2c3f577e">
<path fill="#2c3f57" opacity="0.49" d=" M 921.33 440.07 C 921.48 439.55 921.80 438.52 921.95 438.01 C 921.80 438.52 921.48 439.55 921.33 440.07 Z" />
</g>
<g id="#363d434f">
<path fill="#363d43" opacity="0.31" d=" M 460.60 454.16 C 461.33 448.73 462.37 443.25 464.99 438.37 C 463.50 444.10 462.11 449.85 461.10 455.69 C 460.97 455.31 460.73 454.55 460.60 454.16 Z" />
</g>
<g id="#191a191a">
<path fill="#191a19" opacity="0.10" d=" M 848.02 440.50 C 849.93 441.17 850.15 445.94 848.06 446.57 C 848.02 444.54 847.94 442.52 848.02 440.50 Z" />
</g>
<g id="#2a375591">
<path fill="#2a3755" opacity="0.57" d=" M 859.90 440.86 C 860.42 441.17 861.47 441.80 862.00 442.11 C 862.18 443.07 862.39 444.03 862.61 444.99 C 862.62 446.71 863.36 448.32 864.73 449.41 C 865.09 450.21 865.46 451.01 865.84 451.82 C 865.94 452.46 866.13 453.74 866.23 454.37 C 862.99 450.47 861.85 445.42 859.90 440.86 Z" />
</g>
<g id="#2934425a">
<path fill="#293442" opacity="0.35" d=" M 919.42 445.05 C 917.87 443.94 919.02 440.47 921.00 441.09 C 920.65 442.47 920.08 443.78 919.42 445.05 Z" />
</g>
<g id="#001b6bf9">
<path fill="#001b6b" opacity="0.98" d=" M 719.52 446.66 C 719.70 444.63 720.68 442.79 722.28 441.53 C 722.82 443.71 721.80 446.06 719.52 446.66 Z" />
</g>
<g id="#0180e9fa">
<path fill="#0180e9" opacity="0.98" d=" M 330.37 444.37 C 332.82 441.64 336.72 442.29 340.00 442.10 C 350.67 442.28 361.36 441.74 372.01 442.49 C 373.93 442.47 375.38 443.84 376.92 444.79 C 377.02 457.24 377.03 469.69 376.99 482.13 C 376.54 483.57 375.92 484.93 375.37 486.34 C 361.09 487.89 346.66 486.56 332.31 486.84 C 332.28 486.83 332.21 486.80 332.18 486.79 C 330.84 485.95 328.99 484.87 329.33 483.01 C 329.91 474.00 329.14 465.01 329.57 456.00 C 329.92 452.21 327.85 447.84 330.23 444.51 C 330.27 444.47 330.33 444.40 330.37 444.37 M 333.19 444.07 C 330.22 445.51 330.68 449.25 330.58 451.99 C 330.78 462.24 330.52 472.54 331.46 482.76 C 331.58 485.42 334.95 485.54 336.96 485.67 C 348.30 485.62 359.66 485.73 371.00 485.62 C 375.17 485.49 376.05 480.28 376.04 476.99 C 375.88 467.03 376.81 457.03 376.01 447.09 C 375.60 443.14 370.89 443.63 368.00 443.59 C 356.41 444.04 344.73 443.02 333.19 444.07 Z" />
</g>
<g id="#597c8f99">
<path fill="#597c8f" opacity="0.60" d=" M 279.68 444.54 C 280.92 443.36 285.05 446.24 282.68 446.86 C 281.36 446.58 280.57 445.41 279.68 444.54 Z" />
</g>
<g id="#7b8e979f">
<path fill="#7b8e97" opacity="0.62" d=" M 330.23 444.51 C 330.27 444.47 330.33 444.40 330.37 444.37 C 330.33 444.40 330.27 444.47 330.23 444.51 Z" />
</g>
<g id="#06a5f5ff">
<path fill="#06a5f5" opacity="1.00" d=" M 333.19 444.07 C 344.73 443.02 356.41 444.04 368.00 443.59 C 370.89 443.63 375.60 443.14 376.01 447.09 C 376.81 457.03 375.88 467.03 376.04 476.99 C 376.05 480.28 375.17 485.49 371.00 485.62 C 359.66 485.73 348.30 485.62 336.96 485.67 C 334.95 485.54 331.58 485.42 331.46 482.76 C 330.52 472.54 330.78 462.24 330.58 451.99 C 330.68 449.25 330.22 445.51 333.19 444.07 Z" />
</g>
<g id="#2e35383a">
<path fill="#2e3538" opacity="0.23" d=" M 376.92 444.79 C 378.64 448.97 377.75 453.61 377.99 458.00 C 377.77 466.04 378.87 474.23 376.99 482.13 C 377.03 469.69 377.02 457.24 376.92 444.79 Z" />
</g>
<g id="#010d5cf7">
<path fill="#010d5c" opacity="0.97" d=" M 862.61 444.99 C 864.46 445.64 865.24 447.57 864.73 449.41 C 863.36 448.32 862.62 446.71 862.61 444.99 Z" />
</g>
<g id="#010e58f8">
<path fill="#010e58" opacity="0.97" d=" M 436.98 470.05 C 436.05 461.97 435.14 453.62 437.57 445.69 C 438.20 454.98 436.82 464.49 439.50 473.57 C 441.07 480.72 445.10 486.91 447.59 493.72 C 446.42 492.20 445.16 490.76 443.98 489.27 L 443.38 488.40 C 443.35 488.33 443.28 488.21 443.25 488.15 L 442.60 486.73 C 442.57 486.65 442.51 486.48 442.48 486.40 L 442.08 485.04 C 441.77 483.61 441.15 482.31 440.40 481.09 L 440.06 480.42 C 439.03 477.18 438.08 473.93 437.11 470.68 L 436.98 470.05 Z" />
</g>
<g id="#414b576e">
<path fill="#414b57" opacity="0.43" d=" M 741.83 448.84 C 749.81 442.77 762.72 446.19 766.84 455.32 C 761.85 449.89 755.11 444.64 747.23 447.22 C 742.06 447.70 736.85 454.96 742.46 458.53 C 752.99 463.38 764.94 464.48 775.32 469.78 C 779.63 472.45 784.20 476.00 785.03 481.34 C 783.78 479.13 782.22 477.11 780.45 475.30 C 779.90 474.73 779.35 474.18 778.80 473.63 C 778.33 472.38 777.44 471.71 776.14 471.62 L 775.63 471.44 C 772.99 469.61 770.01 468.35 766.84 467.84 L 766.22 467.66 C 765.67 467.42 764.56 466.94 764.01 466.70 L 763.32 466.56 C 756.35 463.50 748.33 463.25 741.78 459.26 C 737.94 456.98 738.44 451.28 741.83 448.84 Z" />
</g>
<g id="#44505b6f">
<path fill="#44505b" opacity="0.44" d=" M 918.27 447.99 C 918.47 447.50 918.87 446.51 919.07 446.02 C 918.87 446.51 918.47 447.50 918.27 447.99 Z" />
<path fill="#44505b" opacity="0.44" d=" M 911.30 467.08 C 911.48 466.58 911.86 465.57 912.05 465.07 C 911.86 465.57 911.48 466.58 911.30 467.08 Z" />
</g>
<g id="#4f5e6770">
<path fill="#4f5e67" opacity="0.44" d=" M 285.60 447.41 C 289.73 453.64 286.10 461.86 286.74 468.87 L 286.28 468.04 C 285.91 464.63 285.92 461.20 286.20 457.79 C 287.47 454.36 286.78 450.75 285.60 447.41 Z" />
</g>
<g id="#04165fea">
<path fill="#04165f" opacity="0.92" d=" M 718.94 464.60 C 717.78 458.94 717.40 452.98 719.36 447.46 C 718.66 456.28 718.38 467.86 727.56 472.54 C 737.87 479.65 751.53 478.38 761.76 485.28 C 759.21 484.40 756.61 483.70 754.03 482.95 L 753.28 482.73 C 749.81 481.62 746.27 480.73 742.71 480.00 C 741.09 479.62 739.49 479.14 737.99 478.47 C 736.77 477.85 735.53 477.33 734.23 476.99 C 733.03 476.62 731.88 476.16 730.78 475.60 C 729.27 474.74 727.75 473.92 726.21 473.16 C 723.17 471.54 721.22 468.56 719.47 465.71 C 719.45 465.66 719.40 465.57 719.38 465.53 L 718.94 464.60 Z" />
</g>
<g id="#34353536">
<path fill="#343535" opacity="0.21" d=" M 328.69 483.34 C 327.31 471.90 327.90 460.14 328.55 448.64 C 329.56 460.14 329.30 471.81 328.69 483.34 Z" />
</g>
<g id="#385577b4">
<path fill="#385577" opacity="0.71" d=" M 792.29 449.54 C 796.04 449.35 799.79 449.27 803.53 448.90 C 803.63 449.21 803.81 449.82 803.91 450.12 C 804.15 464.82 803.88 479.54 804.03 494.24 C 801.37 479.80 804.02 465.00 802.55 450.46 C 800.75 450.35 798.95 450.27 797.17 450.12 C 795.53 449.94 793.91 449.73 792.29 449.54 Z" />
</g>
<g id="#33425882">
<path fill="#334258" opacity="0.51" d=" M 914.76 456.53 C 915.54 453.81 916.45 451.12 917.77 448.60 C 917.51 450.43 917.35 452.27 917.12 454.10 L 916.89 454.72 C 916.36 455.17 915.29 456.08 914.76 456.53 Z" />
</g>
<g id="#323d4657">
<path fill="#323d46" opacity="0.34" d=" M 937.10 460.17 C 938.38 456.28 939.89 452.48 941.73 448.81 C 941.00 452.86 939.74 456.94 937.10 460.17 Z" />
</g>
<g id="#0559b6f1">
<path fill="#0559b6" opacity="0.95" d=" M 92.63 453.90 C 92.66 452.24 93.45 450.78 94.50 449.56 C 95.15 451.25 94.76 453.63 92.63 453.90 Z" />
</g>
<g id="#031961f2">
<path fill="#031961" opacity="0.95" d=" M 588.39 456.43 C 590.94 451.83 596.46 450.52 601.28 449.93 L 600.20 450.66 L 599.74 450.92 C 599.27 451.16 598.34 451.64 597.88 451.88 L 596.94 451.91 C 596.44 452.10 595.44 452.47 594.95 452.65 L 594.30 453.06 C 592.32 454.17 590.29 455.20 588.39 456.43 Z" />
</g>
<g id="#000554fc">
<path fill="#000554" opacity="1.00" d=" M 803.91 450.12 C 806.95 466.92 802.66 484.58 806.56 501.46 C 806.05 500.48 805.56 499.51 805.07 498.55 L 805.07 497.76 C 805.21 496.74 804.96 495.83 804.31 495.04 L 804.03 494.24 C 803.88 479.54 804.15 464.82 803.91 450.12 Z" />
</g>
<g id="#010b58f8">
<path fill="#010b58" opacity="0.97" d=" M 825.03 473.01 C 825.53 465.25 823.75 457.20 826.03 449.65 C 826.42 461.78 825.44 473.96 826.26 486.09 C 826.86 490.72 828.52 496.42 833.60 497.83 C 838.31 500.13 843.22 497.59 848.04 497.32 C 847.94 503.62 849.07 510.07 847.62 516.28 C 841.06 517.50 834.40 518.48 827.71 517.79 L 826.75 517.69 L 826.84 517.03 C 833.51 517.22 840.31 516.97 846.66 514.70 C 847.32 509.78 847.43 504.80 847.06 499.86 C 840.81 500.69 833.09 502.00 828.43 496.61 C 823.23 489.89 825.49 480.84 825.03 473.01 Z" />
</g>
<g id="#3a414751">
<path fill="#3a4147" opacity="0.32" d=" M 597.88 451.88 C 598.34 451.64 599.27 451.16 599.74 450.92 C 599.27 451.16 598.34 451.64 597.88 451.88 Z" />
</g>
<g id="#333e495d">
<path fill="#333e49" opacity="0.36" d=" M 594.95 452.65 C 595.44 452.47 596.44 452.10 596.94 451.91 C 596.44 452.10 595.44 452.47 594.95 452.65 Z" />
</g>
<g id="#02115ef5">
<path fill="#02115e" opacity="0.96" d=" M 865.84 451.82 C 868.16 455.32 869.72 459.23 870.61 463.32 C 869.83 462.05 868.99 460.81 868.25 459.53 L 867.99 458.75 C 867.67 457.45 867.12 456.23 866.49 455.07 L 866.23 454.37 C 866.13 453.74 865.94 452.46 865.84 451.82 Z" />
</g>
<g id="#232e4471">
<path fill="#232e44" opacity="0.44" d=" M 588.39 456.43 C 590.29 455.20 592.32 454.17 594.30 453.06 C 592.19 455.59 589.55 457.62 586.69 459.23 L 587.23 458.29 C 587.52 457.83 588.10 456.90 588.39 456.43 Z" />
</g>
<g id="#515c6474">
<path fill="#515c64" opacity="0.45" d=" M 769.97 455.52 C 771.45 454.51 772.97 453.53 774.67 452.92 C 775.30 455.04 771.53 457.04 769.97 455.52 Z" />
</g>
<g id="#204882ea">
<path fill="#204882" opacity="0.92" d=" M 460.53 460.81 C 459.53 458.66 459.61 456.30 460.60 454.16 C 460.73 454.55 460.97 455.31 461.10 455.69 C 461.44 457.31 461.79 459.48 460.53 460.81 Z" />
</g>
<g id="#055bb7f6">
<path fill="#055bb7" opacity="0.96" d=" M 87.78 468.06 C 88.58 463.30 90.25 458.77 92.52 454.52 C 92.10 459.38 90.15 463.87 87.78 468.06 Z" />
</g>
<g id="#2a323b4b">
<path fill="#2a323b" opacity="0.29" d=" M 866.49 455.07 C 867.12 456.23 867.67 457.45 867.99 458.75 C 866.03 459.62 864.77 456.04 866.49 455.07 Z" />
</g>
<g id="#031464f8">
<path fill="#031464" opacity="0.97" d=" M 914.76 456.53 C 915.29 456.08 916.36 455.17 916.89 454.72 C 916.04 457.16 915.19 459.60 914.27 462.02 C 914.24 461.64 914.19 460.87 914.16 460.49 L 914.16 459.12 C 914.35 458.64 914.74 457.67 914.94 457.19 L 914.76 456.53 Z" />
</g>
<g id="#48586883">
<path fill="#485868" opacity="0.51" d=" M 914.16 459.12 C 914.35 458.64 914.74 457.67 914.94 457.19 C 914.74 457.67 914.35 458.64 914.16 459.12 Z" />
</g>
<g id="#0061c8fb">
<path fill="#0061c8" opacity="1.00" d=" M 286.28 468.04 C 283.52 465.05 284.41 461.01 286.20 457.79 C 285.92 461.20 285.91 464.63 286.28 468.04 Z" />
</g>
<g id="#4e565a62">
<path fill="#4e565a" opacity="0.38" d=" M 586.29 460.26 C 586.79 460.77 586.79 460.77 586.29 460.26 Z" />
<path fill="#4e565a" opacity="0.38" d=" M 443.25 488.15 C 443.28 488.21 443.35 488.33 443.38 488.40 C 443.35 488.33 443.28 488.21 443.25 488.15 Z" />
<path fill="#4e565a" opacity="0.38" d=" M 883.57 495.58 C 883.60 495.63 883.64 495.74 883.67 495.80 C 883.64 495.74 883.60 495.63 883.57 495.58 Z" />
<path fill="#4e565a" opacity="0.38" d=" M 372.31 580.89 C 372.34 580.82 372.41 580.67 372.44 580.60 C 372.41 580.67 372.34 580.82 372.31 580.89 Z" />
<path fill="#4e565a" opacity="0.38" d=" M 98.48 586.45 C 98.51 586.53 98.58 586.69 98.61 586.77 C 98.58 586.69 98.51 586.53 98.48 586.45 Z" />
<path fill="#4e565a" opacity="0.38" d=" M 99.26 588.14 C 99.29 588.21 99.37 588.34 99.40 588.40 C 99.37 588.34 99.29 588.21 99.26 588.14 Z" />
</g>
<g id="#2e364665">
<path fill="#2e3646" opacity="0.40" d=" M 868.25 459.53 C 868.99 460.81 869.83 462.05 870.61 463.32 L 870.85 463.91 C 871.54 466.18 872.52 468.35 873.83 470.35 L 874.10 470.96 C 874.08 471.51 874.05 472.62 874.04 473.17 C 870.97 469.24 869.21 464.38 868.25 459.53 Z" />
</g>
<g id="#2f3f5c91">
<path fill="#2f3f5c" opacity="0.57" d=" M 912.46 464.05 C 911.62 462.93 912.55 460.01 914.16 460.49 C 914.19 460.87 914.24 461.64 914.27 462.02 L 913.99 462.78 C 913.61 463.10 912.84 463.73 912.46 464.05 Z" />
</g>
<g id="#3d495772">
<path fill="#3d4957" opacity="0.45" d=" M 460.53 460.81 C 462.41 465.09 462.48 469.93 464.45 474.19 C 468.25 483.82 476.70 491.40 486.64 494.27 C 496.98 498.13 508.12 494.66 517.57 490.04 C 517.27 490.48 516.67 491.34 516.36 491.78 L 516.07 492.08 C 513.95 492.05 512.03 492.99 510.83 494.74 L 510.28 494.94 C 504.28 496.06 498.22 497.26 492.08 496.88 C 491.78 496.76 491.17 496.52 490.86 496.40 C 489.66 495.85 488.41 495.72 487.11 496.01 L 486.43 495.84 C 471.57 490.63 461.06 476.60 460.53 460.81 Z" />
</g>
<g id="#303b465a">
<path fill="#303b46" opacity="0.35" d=" M 932.06 472.14 C 933.37 468.23 935.00 464.44 936.86 460.76 C 936.05 464.82 934.68 468.87 932.06 472.14 Z" />
</g>
<g id="#414b525f">
<path fill="#414b52" opacity="0.37" d=" M 584.99 462.28 C 588.15 462.06 583.79 465.41 584.99 462.28 Z" />
<path fill="#414b52" opacity="0.37" d=" M 277.91 662.78 C 278.40 662.56 279.37 662.11 279.85 661.88 C 279.37 662.11 278.40 662.56 277.91 662.78 Z" />
</g>
<g id="#031663f4">
<path fill="#031663" opacity="0.96" d=" M 912.46 464.05 C 912.84 463.73 913.61 463.10 913.99 462.78 C 910.81 471.33 908.84 480.53 903.91 488.30 C 904.85 485.11 905.81 481.93 906.94 478.81 L 907.27 478.04 C 907.47 477.55 907.87 476.57 908.07 476.07 L 908.13 475.04 C 908.37 474.56 908.86 473.61 909.11 473.13 L 909.46 472.11 C 910.12 470.82 910.69 469.49 911.01 468.08 L 911.30 467.08 C 911.48 466.58 911.86 465.57 912.05 465.07 L 912.46 464.05 Z" />
</g>
<g id="#031460f7">
<path fill="#031460" opacity="0.97" d=" M 870.85 463.91 C 871.95 466.00 872.95 468.14 873.83 470.35 C 872.52 468.35 871.54 466.18 870.85 463.91 Z" />
</g>
<g id="#4a59677d">
<path fill="#4a5967" opacity="0.49" d=" M 584.13 467.47 C 583.34 466.36 583.52 465.56 584.67 465.08 C 585.69 466.25 585.51 467.05 584.13 467.47 Z" />
</g>
<g id="#00075bfc">
<path fill="#00075b" opacity="1.00" d=" M 764.01 466.70 C 764.56 466.94 765.67 467.42 766.22 467.66 C 765.67 467.42 764.56 466.94 764.01 466.70 Z" />
</g>
<g id="#021768fb">
<path fill="#021768" opacity="1.00" d=" M 766.84 467.84 C 770.01 468.35 772.99 469.61 775.63 471.44 C 772.49 470.78 769.52 469.60 766.84 467.84 Z" />
</g>
<g id="#36424b5e">
<path fill="#36424b" opacity="0.37" d=" M 909.46 472.11 C 907.98 470.99 909.03 467.48 911.01 468.08 C 910.69 469.49 910.12 470.82 909.46 472.11 Z" />
</g>
<g id="#0b5bb1f1">
<path fill="#0b5bb1" opacity="0.95" d=" M 86.28 470.52 C 86.60 470.05 87.24 469.11 87.57 468.64 C 87.36 472.62 86.27 476.46 84.62 480.08 C 85.13 477.06 85.48 474.01 86.00 470.99 L 86.28 470.52 Z" />
</g>
<g id="#435c707d">
<path fill="#435c70" opacity="0.49" d=" M 286.96 469.31 C 290.69 477.86 294.16 487.43 302.42 492.70 C 307.64 497.07 314.28 498.75 320.45 501.24 C 303.68 499.55 290.08 485.56 286.96 469.31 Z" />
</g>
<g id="#04236df6">
<path fill="#04236d" opacity="0.96" d=" M 582.50 514.24 C 582.20 498.94 581.00 483.36 583.21 468.19 C 585.21 478.53 583.40 489.44 584.07 500.00 C 583.49 505.32 585.51 511.25 582.93 516.14 C 582.82 515.66 582.61 514.71 582.50 514.24 Z" />
</g>
<g id="#4557636e">
<path fill="#455763" opacity="0.43" d=" M 83.94 544.99 C 77.97 520.81 78.96 494.84 86.00 470.99 C 85.48 474.01 85.13 477.06 84.62 480.08 L 84.45 480.85 C 79.21 501.85 80.56 523.81 83.94 544.99 Z" />
</g>
<g id="#313d495b">
<path fill="#313d49" opacity="0.36" d=" M 437.11 470.68 C 438.08 473.93 439.03 477.18 440.06 480.42 C 437.85 477.68 436.91 474.16 437.11 470.68 Z" />
</g>
<g id="#031361f6">
<path fill="#031361" opacity="0.96" d=" M 874.10 470.96 C 875.09 473.05 875.97 475.19 876.76 477.38 C 875.88 476.16 874.94 474.99 874.01 473.83 L 874.04 473.17 C 874.05 472.62 874.08 471.51 874.10 470.96 Z" />
</g>
<g id="#021465f8">
<path fill="#021465" opacity="0.97" d=" M 776.14 471.62 C 777.44 471.71 778.33 472.38 778.80 473.63 C 777.26 473.80 776.37 473.13 776.14 471.62 Z" />
</g>
<g id="#1b253247">
<path fill="#1b2532" opacity="0.28" d=" M 726.21 473.16 C 727.75 473.92 729.27 474.74 730.78 475.60 C 729.22 477.26 725.19 475.44 726.21 473.16 Z" />
</g>
<g id="#3e474f5b">
<path fill="#3e474f" opacity="0.36" d=" M 908.13 475.04 C 908.37 474.56 908.86 473.61 909.11 473.13 C 908.86 473.61 908.37 474.56 908.13 475.04 Z" />
<path fill="#3e474f" opacity="0.36" d=" M 375.93 571.85 C 376.16 571.38 376.62 570.44 376.85 569.96 C 376.62 570.44 376.16 571.38 375.93 571.85 Z" />
</g>
<g id="#343e495d">
<path fill="#343e49" opacity="0.36" d=" M 924.15 491.14 C 926.37 484.87 928.95 478.73 931.82 472.73 C 930.17 479.15 927.79 485.58 924.15 491.14 Z" />
</g>
<g id="#2d3a5281">
<path fill="#2d3a52" opacity="0.51" d=" M 874.01 473.83 C 874.94 474.99 875.88 476.16 876.76 477.38 C 877.07 478.23 877.39 479.09 877.70 479.96 C 877.46 481.75 878.32 483.46 879.99 484.23 L 880.15 484.78 C 880.12 485.38 880.06 486.57 880.03 487.16 C 877.09 483.21 875.73 478.38 874.01 473.83 Z" />
</g>
<g id="#0065b1fe">
<path fill="#0065b1" opacity="1.00" d=" M 235.35 476.35 C 243.90 473.17 252.28 482.51 249.02 490.78 C 246.99 498.56 235.44 500.76 230.67 494.29 C 225.30 488.77 228.24 478.77 235.35 476.35 Z" />
</g>
<g id="#021868f8">
<path fill="#021868" opacity="0.97" d=" M 780.45 475.30 C 782.22 477.11 783.78 479.13 785.03 481.34 L 785.01 482.57 C 785.12 483.17 785.34 484.35 785.44 484.94 C 785.20 484.95 784.71 484.98 784.46 484.99 C 783.18 481.74 782.14 478.38 780.45 475.30 Z" />
</g>
<g id="#3541506b">
<path fill="#354150" opacity="0.42" d=" M 907.27 478.04 C 907.47 477.55 907.87 476.57 908.07 476.07 C 907.87 476.57 907.47 477.55 907.27 478.04 Z" />
<path fill="#354150" opacity="0.42" d=" M 889.17 518.92 C 889.40 518.44 889.87 517.48 890.11 517.00 C 889.87 517.48 889.40 518.44 889.17 518.92 Z" />
</g>
<g id="#212a3547">
<path fill="#212a35" opacity="0.28" d=" M 734.23 476.99 C 735.53 477.33 736.77 477.85 737.99 478.47 C 736.98 480.15 733.38 478.98 734.23 476.99 Z" />
</g>
<g id="#3f485369">
<path fill="#3f4853" opacity="0.41" d=" M 518.73 488.92 C 522.69 485.88 524.40 480.02 529.12 478.29 C 535.16 480.38 540.75 483.92 546.70 486.40 C 549.53 487.24 549.59 490.87 547.31 492.40 C 547.72 490.74 548.86 488.29 546.48 487.59 C 540.72 484.83 535.15 481.34 528.83 479.99 L 528.18 479.84 C 526.43 479.32 525.99 481.74 525.78 482.97 C 525.32 483.62 524.85 484.28 524.40 484.94 C 522.54 486.32 520.61 487.57 518.73 488.92 Z" />
</g>
<g id="#021764f8">
<path fill="#021764" opacity="0.97" d=" M 681.24 477.65 C 681.50 478.14 682.03 479.12 682.29 479.61 C 682.19 490.60 671.88 499.91 660.97 499.16 C 653.52 499.46 645.80 493.92 646.06 485.97 C 647.78 489.62 649.36 493.88 653.19 495.84 C 662.28 501.12 675.11 496.49 679.07 486.82 L 679.45 486.19 C 679.60 485.69 679.91 484.67 680.06 484.16 L 680.15 483.43 C 680.48 481.50 680.90 479.58 681.24 477.65 Z" />
</g>
<g id="#010a51f1">
<path fill="#010a51" opacity="0.95" d=" M 525.78 482.97 C 525.99 481.74 526.43 479.32 528.18 479.84 C 528.46 481.40 526.97 482.36 525.78 482.97 Z" />
</g>
<g id="#02115af7">
<path fill="#02115a" opacity="0.97" d=" M 528.83 479.99 C 535.15 481.34 540.72 484.83 546.48 487.59 C 548.86 488.29 547.72 490.74 547.31 492.40 C 546.55 493.48 545.69 494.49 544.79 495.44 C 544.35 495.88 543.48 496.76 543.05 497.20 C 544.31 494.55 545.51 491.87 546.78 489.22 C 540.75 486.22 534.60 483.48 528.83 479.99 Z" />
</g>
<g id="#26303d55">
<path fill="#26303d" opacity="0.33" d=" M 742.71 480.00 C 746.27 480.73 749.81 481.62 753.28 482.73 C 749.62 482.59 745.81 482.13 742.71 480.00 Z" />
</g>
<g id="#000f5ffc">
<path fill="#000f5f" opacity="1.00" d=" M 877.70 479.96 C 879.30 480.76 880.16 482.44 879.99 484.23 C 878.32 483.46 877.46 481.75 877.70 479.96 Z" />
</g>
<g id="#014babf9">
<path fill="#014bab" opacity="0.98" d=" M 83.94 544.99 C 80.56 523.81 79.21 501.85 84.45 480.85 C 83.57 494.70 80.50 508.56 82.51 522.45 C 82.85 531.49 85.36 540.25 85.78 549.28 C 85.23 548.07 84.64 546.89 84.10 545.70 L 83.94 544.99 Z" />
</g>
<g id="#28344563">
<path fill="#283445" opacity="0.39" d=" M 440.40 481.09 C 441.15 482.31 441.77 483.61 442.08 485.04 C 440.15 485.55 438.92 482.23 440.40 481.09 Z" />
</g>
<g id="#005ca8fe">
<path fill="#005ca8" opacity="1.00" d=" M 152.37 482.40 C 165.47 479.33 179.08 490.67 179.05 503.96 C 180.24 517.88 166.67 530.34 152.98 528.77 C 142.03 527.82 133.60 517.79 133.06 507.07 C 132.34 495.57 141.23 484.70 152.37 482.40 Z" />
</g>
<g id="#3c50637f">
<path fill="#3c5063" opacity="0.50" d=" M 785.01 482.57 C 786.47 482.60 786.84 483.37 786.12 484.89 L 785.44 484.94 C 785.34 484.35 785.12 483.17 785.01 482.57 Z" />
</g>
<g id="#2f3a4962">
<path fill="#2f3a49" opacity="0.38" d=" M 754.03 482.95 C 756.61 483.70 759.21 484.40 761.76 485.28 L 762.23 485.68 C 762.46 486.29 762.91 487.50 763.13 488.10 C 760.07 486.43 757.06 484.68 754.03 482.95 Z" />
</g>
<g id="#48546074">
<path fill="#485460" opacity="0.45" d=" M 679.45 486.19 C 679.60 485.69 679.91 484.67 680.06 484.16 C 679.91 484.67 679.60 485.69 679.45 486.19 Z" />
</g>
<g id="#0c1b5fee">
<path fill="#0c1b5f" opacity="0.93" d=" M 518.73 488.92 C 520.61 487.57 522.54 486.32 524.40 484.94 C 522.71 488.24 519.84 490.56 516.36 491.78 C 516.67 491.34 517.27 490.48 517.57 490.04 C 517.86 489.76 518.44 489.20 518.73 488.92 Z" />
</g>
<g id="#031560f6">
<path fill="#031560" opacity="0.96" d=" M 880.15 484.78 C 881.00 486.93 881.89 489.06 882.77 491.20 C 881.88 490.05 880.93 488.96 879.99 487.87 L 880.03 487.16 C 880.06 486.57 880.12 485.38 880.15 484.78 Z" />
</g>
<g id="#4a6a7b81">
<path fill="#4a6a7b" opacity="0.51" d=" M 332.18 486.79 C 332.21 486.80 332.28 486.83 332.31 486.84 C 332.28 486.83 332.21 486.80 332.18 486.79 Z" />
</g>
<g id="#4e504f51">
<path fill="#4e504f" opacity="0.32" d=" M 332.31 486.84 C 346.66 486.56 361.09 487.89 375.37 486.34 C 369.23 489.64 361.69 487.42 354.97 487.92 C 347.45 487.35 339.58 489.33 332.31 486.84 Z" />
</g>
<g id="#59676f7a">
<path fill="#59676f" opacity="0.48" d=" M 442.48 486.40 C 442.51 486.48 442.57 486.65 442.60 486.73 C 442.57 486.65 442.51 486.48 442.48 486.40 Z" />
<path fill="#59676f" opacity="0.48" d=" M 371.47 582.74 C 371.51 582.65 371.60 582.46 371.64 582.37 C 371.60 582.46 371.51 582.65 371.47 582.74 Z" />
<path fill="#59676f" opacity="0.48" d=" M 370.48 584.72 C 370.53 584.63 370.63 584.44 370.68 584.35 C 370.63 584.44 370.53 584.63 370.48 584.72 Z" />
<path fill="#59676f" opacity="0.48" d=" M 118.32 616.51 C 118.37 616.53 118.48 616.56 118.53 616.57 C 118.48 616.56 118.37 616.53 118.32 616.51 Z" />
</g>
<g id="#031968f9">
<path fill="#031968" opacity="0.98" d=" M 762.23 485.68 C 766.27 488.60 766.13 495.28 762.22 498.25 C 756.35 503.11 747.82 502.40 741.13 499.77 C 736.19 498.08 733.96 492.47 728.88 491.06 C 729.58 490.54 730.30 490.02 731.02 489.52 C 736.12 495.47 742.64 500.96 751.01 500.47 C 757.50 501.41 766.61 496.33 763.35 488.78 L 763.13 488.10 C 762.91 487.50 762.46 486.29 762.23 485.68 Z" />
</g>
<g id="#252d374a">
<path fill="#252d37" opacity="0.29" d=" M 786.07 485.61 C 786.97 490.44 786.88 495.93 784.22 500.22 C 785.36 495.76 785.99 491.18 786.00 486.57 L 786.07 485.61 Z" />
</g>
<g id="#021966f5">
<path fill="#021966" opacity="0.96" d=" M 777.40 507.42 C 783.43 502.14 784.29 493.91 786.00 486.57 C 785.99 491.18 785.36 495.76 784.22 500.22 L 783.99 500.84 C 780.12 507.73 773.83 512.83 766.70 516.05 L 765.83 516.03 C 765.34 516.24 764.38 516.66 763.89 516.87 L 762.82 516.89 C 761.79 516.75 760.87 517.01 760.07 517.66 L 759.30 517.96 C 752.15 518.40 744.96 518.26 737.89 517.05 C 736.52 516.73 735.21 516.18 733.97 515.57 C 732.72 514.89 731.43 514.32 730.11 513.87 L 729.21 513.46 C 727.90 512.61 726.57 511.83 725.17 511.20 L 724.49 510.85 C 723.67 509.95 722.91 509.04 722.12 508.15 C 738.23 519.05 762.47 521.71 777.40 507.42 Z" />
</g>
<g id="#2d384b6d">
<path fill="#2d384b" opacity="0.43" d=" M 879.99 487.87 C 880.93 488.96 881.88 490.05 882.77 491.20 L 883.06 491.86 C 883.12 492.53 883.24 493.89 883.30 494.57 C 881.61 492.66 880.60 490.31 879.99 487.87 Z" />
</g>
<g id="#47505a6d">
<path fill="#47505a" opacity="0.43" d=" M 723.82 493.90 C 725.42 491.72 727.62 490.00 730.14 488.97 C 734.77 489.31 736.23 494.96 740.29 496.61 C 746.32 499.37 754.38 501.70 760.12 497.15 C 762.92 495.27 763.09 491.81 763.35 488.78 C 766.61 496.33 757.50 501.41 751.01 500.47 C 742.64 500.96 736.12 495.47 731.02 489.52 C 730.30 490.02 729.58 490.54 728.88 491.06 L 728.14 491.62 C 726.69 492.38 725.23 493.10 723.82 493.90 Z" />
</g>
<g id="#242b3b60">
<path fill="#242b3b" opacity="0.38" d=" M 443.98 489.27 C 445.16 490.76 446.42 492.20 447.59 493.72 L 447.88 494.53 L 447.84 495.26 C 445.65 493.94 444.50 491.70 443.98 489.27 Z" />
</g>
<g id="#010e59f7">
<path fill="#010e59" opacity="0.97" d=" M 510.83 494.74 C 512.03 492.99 513.95 492.05 516.07 492.08 C 515.17 494.21 513.05 495.14 510.83 494.74 Z" />
</g>
<g id="#051c63ee">
<path fill="#051c63" opacity="0.93" d=" M 723.82 493.90 C 725.23 493.10 726.69 492.38 728.14 491.62 C 726.41 493.27 724.49 494.69 722.39 495.84 C 722.67 495.47 723.22 494.71 723.49 494.33 L 723.82 493.90 Z" />
</g>
<g id="#04125df2">
<path fill="#04125d" opacity="0.95" d=" M 883.06 491.86 C 885.55 496.06 887.56 500.54 888.78 505.29 C 887.91 504.04 887.00 502.82 886.17 501.57 L 885.94 500.77 C 885.65 499.37 885.09 498.06 884.29 496.89 L 883.67 495.80 C 883.64 495.74 883.60 495.63 883.57 495.58 L 883.30 494.57 C 883.24 493.89 883.12 492.53 883.06 491.86 Z" />
</g>
<g id="#36414c60">
<path fill="#36414c" opacity="0.38" d=" M 915.90 511.37 C 918.31 504.72 920.86 498.11 923.91 491.72 C 922.20 498.56 919.59 505.35 915.90 511.37 Z" />
</g>
<g id="#000b53f4">
<path fill="#000b53" opacity="0.96" d=" M 625.72 492.89 C 627.00 495.31 628.02 497.85 628.90 500.45 C 627.96 499.25 626.98 498.08 626.08 496.88 L 625.94 496.15 C 625.89 495.34 625.78 493.71 625.72 492.89 Z" />
</g>
<g id="#01084df4">
<path fill="#01084d" opacity="0.96" d=" M 447.88 494.53 C 450.05 493.83 450.94 496.30 451.10 497.99 C 450.08 497.33 449.05 496.71 448.06 496.03 L 447.84 495.26 L 447.88 494.53 Z" />
</g>
<g id="#4f56627d">
<path fill="#4f5662" opacity="0.49" d=" M 716.43 497.82 C 718.53 496.19 720.92 495.00 723.49 494.33 C 723.22 494.71 722.67 495.47 722.39 495.84 L 721.89 496.18 C 720.11 496.87 718.28 497.39 716.43 497.82 Z" />
</g>
<g id="#030a55fa">
<path fill="#030a55" opacity="0.98" d=" M 492.08 496.88 C 498.22 497.26 504.28 496.06 510.28 494.94 C 504.80 497.84 497.99 499.55 492.08 496.88 Z" />
</g>
<g id="#2c3d557f">
<path fill="#2c3d55" opacity="0.50" d=" M 804.31 495.04 C 804.96 495.83 805.21 496.74 805.07 497.76 C 803.35 497.32 803.10 496.42 804.31 495.04 Z" />
</g>
<g id="#262c313c">
<path fill="#262c31" opacity="0.24" d=" M 448.06 496.03 C 449.05 496.71 450.08 497.33 451.10 497.99 C 450.39 500.33 446.71 497.68 448.06 496.03 Z" />
</g>
<g id="#000452fb">
<path fill="#000452" opacity="1.00" d=" M 487.11 496.01 C 488.41 495.72 489.66 495.85 490.86 496.40 C 490.13 498.26 487.82 497.40 487.11 496.01 Z" />
</g>
<g id="#1b20283c">
<path fill="#1b2028" opacity="0.24" d=" M 543.05 497.20 C 543.48 496.76 544.35 495.88 544.79 495.44 C 543.77 498.98 541.77 502.75 537.95 503.81 C 539.58 502.02 540.92 500.01 542.30 498.03 C 542.49 497.82 542.86 497.41 543.05 497.20 Z" />
</g>
<g id="#162764dd">
<path fill="#162764" opacity="0.87" d=" M 716.43 497.82 C 718.28 497.39 720.11 496.87 721.89 496.18 C 719.87 497.74 718.10 499.61 716.68 501.72 C 716.34 500.70 716.04 499.67 715.71 498.67 L 715.52 498.04 L 716.43 497.82 Z" />
</g>
<g id="#1f293f6c">
<path fill="#1f293f" opacity="0.42" d=" M 626.08 496.88 C 626.98 498.08 627.96 499.25 628.90 500.45 L 629.15 500.94 C 629.16 502.22 629.37 503.46 629.80 504.67 C 627.93 502.41 626.58 499.77 626.08 496.88 Z" />
</g>
<g id="#262f3849">
<path fill="#262f38" opacity="0.29" d=" M 884.29 496.89 C 885.09 498.06 885.65 499.37 885.94 500.77 C 884.00 501.43 882.90 498.03 884.29 496.89 Z" />
</g>
<g id="#051155eb">
<path fill="#051155" opacity="0.92" d=" M 535.95 504.37 C 537.71 501.92 539.88 499.82 542.30 498.03 C 540.92 500.01 539.58 502.02 537.95 503.81 L 537.13 504.05 L 535.95 504.37 Z" />
</g>
<g id="#24293041">
<path fill="#242930" opacity="0.25" d=" M 715.21 497.81 L 715.71 498.67 C 716.04 499.67 716.34 500.70 716.68 501.72 C 716.82 502.11 717.10 502.89 717.24 503.28 C 717.52 504.64 718.69 505.50 719.92 506.03 C 720.16 507.21 720.90 507.92 722.12 508.15 C 722.91 509.04 723.67 509.95 724.49 510.85 C 719.45 508.87 714.28 503.62 715.21 497.81 Z" />
</g>
<g id="#222b406b">
<path fill="#222b40" opacity="0.42" d=" M 805.07 498.55 C 805.56 499.51 806.05 500.48 806.56 501.46 C 806.91 502.31 807.26 503.17 807.63 504.04 C 807.97 504.54 808.66 505.55 809.01 506.05 C 809.19 506.31 809.55 506.82 809.74 507.08 C 810.84 508.73 811.89 510.43 813.07 512.05 C 808.45 509.27 805.54 503.83 805.07 498.55 Z" />
</g>
<g id="#3a464d55">
<path fill="#3a464d" opacity="0.33" d=" M 321.26 501.45 C 322.46 499.73 326.47 500.97 325.66 503.18 C 324.17 502.65 322.71 502.06 321.26 501.45 Z" />
</g>
<g id="#01125af6">
<path fill="#01125a" opacity="0.96" d=" M 629.15 500.94 C 630.50 502.02 631.51 503.44 631.93 505.15 C 631.60 505.17 630.94 505.20 630.61 505.22 L 629.80 504.67 C 629.37 503.46 629.16 502.22 629.15 500.94 Z" />
</g>
<g id="#31393e49">
<path fill="#31393e" opacity="0.29" d=" M 766.70 516.05 C 773.83 512.83 780.12 507.73 783.99 500.84 C 781.84 508.59 774.32 514.24 766.70 516.05 Z" />
</g>
<g id="#2c364869">
<path fill="#2c3648" opacity="0.41" d=" M 886.17 501.57 C 887.00 502.82 887.91 504.04 888.78 505.29 L 889.05 505.89 C 889.09 506.47 889.18 507.64 889.23 508.22 C 887.41 506.43 886.37 504.09 886.17 501.57 Z" />
</g>
<g id="#1c23345b">
<path fill="#1c2334" opacity="0.36" d=" M 455.40 503.10 C 455.80 503.31 456.61 503.72 457.02 503.93 C 457.69 504.73 458.33 505.58 459.02 506.41 C 457.25 507.65 454.28 504.93 455.40 503.10 Z" />
</g>
<g id="#000b59f5">
<path fill="#000b59" opacity="0.96" d=" M 717.24 503.28 C 718.72 503.17 720.62 504.29 719.92 506.03 C 718.69 505.50 717.52 504.64 717.24 503.28 Z" />
</g>
<g id="#010d54f2">
<path fill="#010d54" opacity="0.95" d=" M 457.02 503.93 C 463.18 507.07 468.56 511.76 475.33 513.69 C 492.90 519.27 513.25 518.12 529.05 508.11 C 531.02 506.99 533.07 506.02 535.10 504.99 C 533.58 506.30 532.12 507.67 530.55 508.90 L 529.85 509.24 C 528.38 509.83 527.00 510.61 525.73 511.55 L 524.57 512.29 C 524.50 512.32 524.36 512.40 524.29 512.43 L 523.00 512.91 C 521.58 513.31 520.24 513.90 518.95 514.57 L 517.92 514.95 C 517.43 515.17 516.45 515.60 515.96 515.82 L 514.84 515.87 C 513.81 515.75 512.90 516.03 512.11 516.70 L 511.44 517.06 C 498.13 518.89 484.32 518.66 471.58 513.99 L 470.96 513.61 C 470.02 512.86 468.98 512.26 467.82 511.97 L 466.76 511.56 C 466.71 511.54 466.62 511.50 466.57 511.47 L 465.71 511.01 C 463.62 509.71 461.57 508.36 459.57 506.95 L 459.02 506.41 C 458.33 505.58 457.69 504.73 457.02 503.93 Z" />
</g>
<g id="#1e263657">
<path fill="#1e2636" opacity="0.34" d=" M 535.10 504.99 C 535.31 504.83 535.74 504.52 535.95 504.37 L 537.13 504.05 C 535.91 506.76 533.42 508.36 530.55 508.90 C 532.12 507.67 533.58 506.30 535.10 504.99 Z" />
</g>
<g id="#000752f4">
<path fill="#000752" opacity="0.96" d=" M 807.63 504.04 C 807.97 504.54 808.66 505.55 809.01 506.05 C 808.66 505.55 807.97 504.54 807.63 504.04 Z" />
</g>
<g id="#405c7281">
<path fill="#405c72" opacity="0.51" d=" M 327.70 504.96 C 329.73 506.19 331.07 508.17 331.90 510.36 C 330.30 508.72 328.98 506.84 327.70 504.96 Z" />
</g>
<g id="#263355a3">
<path fill="#263355" opacity="0.64" d=" M 630.61 505.22 C 630.94 505.20 631.60 505.17 631.93 505.15 C 632.27 505.61 632.97 506.54 633.32 507.00 C 633.28 507.32 633.19 507.96 633.15 508.28 C 631.89 508.76 629.84 506.36 630.61 505.22 Z" />
</g>
<g id="#001359f2">
<path fill="#001359" opacity="0.95" d=" M 719.92 506.03 C 721.42 505.79 722.16 506.50 722.12 508.15 C 720.90 507.92 720.16 507.21 719.92 506.03 Z" />
</g>
<g id="#071559e0">
<path fill="#071559" opacity="0.88" d=" M 889.05 505.89 C 890.28 508.12 891.55 510.45 891.61 513.08 C 891.33 512.67 890.79 511.85 890.51 511.44 C 889.80 510.46 889.37 509.39 889.23 508.22 C 889.18 507.64 889.09 506.47 889.05 505.89 Z" />
</g>
<g id="#1f273142">
<path fill="#1f2731" opacity="0.26" d=" M 459.57 506.95 C 461.57 508.36 463.62 509.71 465.71 511.01 C 463.12 510.58 460.78 509.37 459.57 506.95 Z" />
</g>
<g id="#081c5ce9">
<path fill="#081c5c" opacity="0.91" d=" M 633.32 507.00 C 635.41 507.56 638.14 510.79 634.09 509.98 C 633.86 509.55 633.39 508.70 633.15 508.28 C 633.19 507.96 633.28 507.32 633.32 507.00 Z" />
</g>
<g id="#02135df1">
<path fill="#02135d" opacity="0.95" d=" M 659.07 516.97 C 667.47 517.35 673.82 511.58 680.46 507.49 C 679.93 508.03 679.42 508.58 678.94 509.17 C 678.25 510.00 677.56 510.83 676.85 511.64 C 673.95 513.67 670.86 515.42 667.69 516.99 L 666.80 516.96 C 665.77 516.78 664.87 517.03 664.08 517.71 L 663.36 518.10 C 653.94 518.88 644.00 517.49 636.48 511.31 C 643.95 513.49 650.92 518.16 659.07 516.97 Z" />
</g>
<g id="#4e54585f">
<path fill="#4e5458" opacity="0.37" d=" M 680.46 507.49 C 680.87 507.39 681.68 507.20 682.09 507.11 C 681.60 509.05 681.91 511.04 682.12 513.01 L 682.15 514.04 L 682.18 515.02 C 681.34 512.94 680.88 510.54 678.94 509.17 C 679.42 508.58 679.93 508.03 680.46 507.49 Z" />
</g>
<g id="#040c42b7">
<path fill="#040c42" opacity="0.72" d=" M 682.09 507.11 L 682.57 507.01 C 683.96 508.87 683.14 511.19 682.12 513.01 C 681.91 511.04 681.60 509.05 682.09 507.11 Z" />
</g>
<g id="#0b1854ca">
<path fill="#0b1854" opacity="0.79" d=" M 809.74 507.08 C 814.33 512.03 820.20 515.60 826.84 517.03 C 826.28 516.99 825.16 516.90 824.60 516.86 C 820.34 516.92 816.43 514.47 813.07 512.05 C 811.89 510.43 810.84 508.73 809.74 507.08 Z" />
</g>
<g id="#1d253043">
<path fill="#1d2530" opacity="0.26" d=" M 525.73 511.55 C 527.00 510.61 528.38 509.83 529.85 509.24 C 530.80 511.28 527.15 512.95 525.73 511.55 Z" />
</g>
<g id="#495d6d7a">
<path fill="#495d6d" opacity="0.48" d=" M 332.66 511.15 C 338.04 514.64 343.96 517.08 350.04 519.10 C 346.66 518.54 343.30 517.85 340.03 516.82 C 337.40 515.16 334.83 513.38 332.66 511.15 Z" />
</g>
<g id="#3c444a55">
<path fill="#3c444a" opacity="0.33" d=" M 466.57 511.47 C 466.62 511.50 466.71 511.54 466.76 511.56 C 466.71 511.54 466.62 511.50 466.57 511.47 Z" />
</g>
<g id="#222b374d">
<path fill="#222b37" opacity="0.30" d=" M 725.17 511.20 C 726.57 511.83 727.90 512.61 729.21 513.46 C 727.83 515.07 724.12 513.23 725.17 511.20 Z" />
</g>
<g id="#2e363e4c">
<path fill="#2e363e" opacity="0.30" d=" M 890.51 511.44 C 890.79 511.85 891.33 512.67 891.61 513.08 L 891.63 513.88 C 891.36 514.33 890.81 515.23 890.54 515.68 C 889.47 514.63 889.48 512.50 890.51 511.44 Z" />
</g>
<g id="#282e343e">
<path fill="#282e34" opacity="0.24" d=" M 467.82 511.97 C 468.98 512.26 470.02 512.86 470.96 513.61 C 469.93 515.02 467.01 513.65 467.82 511.97 Z" />
</g>
<g id="#3b424852">
<path fill="#3b4248" opacity="0.32" d=" M 524.29 512.43 C 524.36 512.40 524.50 512.32 524.57 512.29 C 524.50 512.32 524.36 512.40 524.29 512.43 Z" />
<path fill="#3b4248" opacity="0.32" d=" M 890.22 551.55 C 890.27 551.53 890.38 551.48 890.44 551.46 C 890.38 551.48 890.27 551.53 890.22 551.55 Z" />
</g>
<g id="#222a3342">
<path fill="#222a33" opacity="0.26" d=" M 636.48 511.31 C 644.00 517.49 653.94 518.88 663.36 518.10 C 654.42 520.42 642.50 518.84 636.48 511.31 Z" />
</g>
<g id="#28334057">
<path fill="#283340" opacity="0.34" d=" M 667.69 516.99 C 670.86 515.42 673.95 513.67 676.85 511.64 C 675.00 514.98 671.26 516.39 667.69 516.99 Z" />
</g>
<g id="#414c5669">
<path fill="#414c56" opacity="0.41" d=" M 914.00 515.82 C 914.23 514.44 914.80 513.17 915.56 512.01 C 917.04 513.06 915.90 516.56 914.00 515.82 Z" />
</g>
<g id="#26303c50">
<path fill="#26303c" opacity="0.31" d=" M 518.95 514.57 C 520.24 513.90 521.58 513.31 523.00 512.91 C 523.52 514.88 520.11 516.07 518.95 514.57 Z" />
</g>
<g id="#26303c51">
<path fill="#26303c" opacity="0.32" d=" M 471.58 513.99 C 484.32 518.66 498.13 518.89 511.44 517.06 C 498.67 520.44 483.51 520.08 471.58 513.99 Z" />
</g>
<g id="#232e3e5a">
<path fill="#232e3e" opacity="0.35" d=" M 730.11 513.87 C 731.43 514.32 732.72 514.89 733.97 515.57 C 732.83 517.15 729.36 515.85 730.11 513.87 Z" />
</g>
<g id="#020d57f1">
<path fill="#020d57" opacity="0.95" d=" M 891.63 513.88 C 891.84 516.90 890.35 519.60 889.09 522.23 C 889.10 521.62 889.11 520.40 889.12 519.79 L 889.17 518.92 C 889.40 518.44 889.87 517.48 890.11 517.00 L 890.54 515.68 C 890.81 515.23 891.36 514.33 891.63 513.88 Z" />
</g>
<g id="#3845546e">
<path fill="#384554" opacity="0.43" d=" M 515.96 515.82 C 516.45 515.60 517.43 515.17 517.92 514.95 C 517.43 515.17 516.45 515.60 515.96 515.82 Z" />
</g>
<g id="#3c485058">
<path fill="#3c4850" opacity="0.35" d=" M 372.48 516.85 C 377.02 515.16 382.24 516.71 384.29 521.29 C 383.77 520.89 382.73 520.09 382.22 519.68 L 381.58 519.23 C 378.65 516.20 374.39 516.86 370.85 518.29 L 370.12 518.50 C 363.77 519.91 357.13 520.76 350.72 519.22 C 358.04 519.17 365.45 519.26 372.48 516.85 Z" />
</g>
<g id="#2f3d5175">
<path fill="#2f3d51" opacity="0.46" d=" M 512.11 516.70 C 512.90 516.03 513.81 515.75 514.84 515.87 C 514.41 517.58 513.50 517.86 512.11 516.70 Z" />
</g>
<g id="#3d495973">
<path fill="#3d4959" opacity="0.45" d=" M 763.89 516.87 C 764.38 516.66 765.34 516.24 765.83 516.03 C 765.34 516.24 764.38 516.66 763.89 516.87 Z" />
</g>
<g id="#282d3440">
<path fill="#282d34" opacity="0.25" d=" M 827.71 517.79 C 834.40 518.48 841.06 517.50 847.62 516.28 C 841.64 519.28 834.12 519.34 827.71 517.79 Z" />
</g>
<g id="#0359b6f7">
<path fill="#0359b6" opacity="0.97" d=" M 340.03 516.82 C 343.30 517.85 346.66 518.54 350.04 519.10 L 350.72 519.22 C 357.13 520.76 363.77 519.91 370.12 518.50 C 365.15 522.18 358.72 521.06 352.96 520.96 C 348.34 520.85 343.66 519.82 340.03 516.82 Z" />
</g>
<g id="#0a5db1ee">
<path fill="#0a5db1" opacity="0.93" d=" M 370.85 518.29 C 374.39 516.86 378.65 516.20 381.58 519.23 C 378.08 518.38 374.45 518.06 370.85 518.29 Z" />
</g>
<g id="#3141577d">
<path fill="#314157" opacity="0.49" d=" M 664.08 517.71 C 664.87 517.03 665.77 516.78 666.80 516.96 C 666.35 518.64 665.45 518.89 664.08 517.71 Z" />
</g>
<g id="#232e3b51">
<path fill="#232e3b" opacity="0.32" d=" M 737.89 517.05 C 744.96 518.26 752.15 518.40 759.30 517.96 C 752.39 519.65 744.52 519.85 737.89 517.05 Z" />
</g>
<g id="#343f4c61">
<path fill="#343f4c" opacity="0.38" d=" M 760.07 517.66 C 760.87 517.01 761.79 516.75 762.82 516.89 C 762.36 518.58 761.45 518.84 760.07 517.66 Z" />
</g>
<g id="#26395380">
<path fill="#263953" opacity="0.50" d=" M 824.60 516.86 C 825.16 516.90 826.28 516.99 826.84 517.03 L 826.75 517.69 C 825.28 518.73 824.56 518.45 824.60 516.86 Z" />
</g>
<g id="#343e485b">
<path fill="#343e48" opacity="0.36" d=" M 905.34 536.35 C 908.22 529.77 911.17 523.23 913.81 516.55 C 912.46 523.59 909.64 530.59 905.34 536.35 Z" />
</g>
<g id="#0356b3f7">
<path fill="#0356b3" opacity="0.97" d=" M 382.22 519.68 C 382.73 520.09 383.77 520.89 384.29 521.29 L 384.06 522.03 C 384.24 522.51 384.61 523.46 384.79 523.94 L 385.16 524.73 C 385.32 532.57 383.92 540.30 383.11 548.07 L 382.96 548.73 C 381.81 552.45 380.91 556.23 380.10 560.04 L 379.84 560.73 C 379.53 561.38 378.90 562.67 378.59 563.32 C 379.85 548.87 386.98 534.17 382.22 519.68 Z" />
</g>
<g id="#3140557d">
<path fill="#314055" opacity="0.49" d=" M 880.57 531.68 C 884.74 528.80 886.32 523.79 889.12 519.79 C 889.11 520.40 889.10 521.62 889.09 522.23 L 889.07 522.89 C 887.40 522.92 886.82 524.72 886.66 526.08 C 886.17 527.08 885.69 528.08 885.27 529.11 C 883.42 529.47 882.00 530.94 881.62 532.77 L 881.05 532.83 C 879.65 532.81 878.10 533.50 877.76 534.97 L 876.95 534.92 C 876.23 535.06 874.81 535.33 874.10 535.47 C 873.79 535.55 873.18 535.72 872.87 535.80 C 869.88 536.01 866.89 536.03 863.90 536.12 C 863.48 542.37 863.42 548.64 863.76 554.89 C 870.27 555.10 876.84 555.15 883.31 554.11 C 876.71 556.35 869.46 556.53 862.64 555.26 C 862.72 548.54 862.55 541.81 863.10 535.11 C 868.96 534.52 875.51 535.30 880.57 531.68 Z" />
</g>
<g id="#5263738f">
<path fill="#526373" opacity="0.56" d=" M 384.06 522.03 C 384.24 522.51 384.61 523.46 384.79 523.94 C 384.61 523.46 384.24 522.51 384.06 522.03 Z" />
</g>
<g id="#000f5af9">
<path fill="#000f5a" opacity="0.98" d=" M 886.66 526.08 C 886.82 524.72 887.40 522.92 889.07 522.89 C 889.34 524.48 888.03 525.63 886.66 526.08 Z" />
</g>
<g id="#3546515c">
<path fill="#354651" opacity="0.36" d=" M 385.16 524.73 C 385.94 532.49 385.32 540.58 383.11 548.07 C 383.92 540.30 385.32 532.57 385.16 524.73 Z" />
</g>
<g id="#01105af2">
<path fill="#01105a" opacity="0.95" d=" M 881.62 532.77 C 882.00 530.94 883.42 529.47 885.27 529.11 C 884.85 530.91 883.77 532.92 881.62 532.77 Z" />
</g>
<g id="#005eabfe">
<path fill="#005eab" opacity="1.00" d=" M 343.00 533.19 C 344.35 534.10 345.71 535.00 347.07 535.90 C 348.40 535.62 349.73 535.35 351.06 535.07 C 344.44 553.07 336.03 570.79 323.37 585.39 C 321.68 587.01 319.91 589.61 317.24 589.07 C 314.01 585.57 316.60 580.32 319.16 577.18 C 329.64 564.06 337.10 548.83 343.00 533.19 Z" />
</g>
<g id="#010b56f5">
<path fill="#010b56" opacity="0.96" d=" M 877.76 534.97 C 878.10 533.50 879.65 532.81 881.05 532.83 C 880.84 534.36 879.21 535.31 877.76 534.97 Z" />
</g>
<g id="#000550f9">
<path fill="#000550" opacity="0.98" d=" M 874.10 535.47 C 874.81 535.33 876.23 535.06 876.95 534.92 C 876.84 536.52 874.78 536.90 874.10 535.47 Z" />
</g>
<g id="#01074ff5">
<path fill="#01074f" opacity="0.96" d=" M 863.90 536.12 C 866.89 536.03 869.88 536.01 872.87 535.80 C 870.30 536.55 867.67 537.08 865.04 537.52 C 864.71 542.98 864.78 548.44 865.09 553.90 C 874.75 554.66 884.44 553.07 893.26 549.04 C 892.74 549.53 891.72 550.50 891.21 550.99 L 890.44 551.46 C 890.38 551.48 890.27 551.53 890.22 551.55 L 889.00 551.93 C 887.61 552.25 886.31 552.78 885.06 553.42 C 884.62 553.59 883.74 553.94 883.31 554.11 C 876.84 555.15 870.27 555.10 863.76 554.89 C 863.42 548.64 863.48 542.37 863.90 536.12 Z" />
</g>
<g id="#2b313c55">
<path fill="#2b313c" opacity="0.33" d=" M 901.94 540.07 C 902.95 538.98 904.02 537.95 905.04 536.86 C 902.60 543.09 897.68 548.84 891.21 550.99 C 891.72 550.50 892.74 549.53 893.26 549.04 C 893.46 548.87 893.87 548.53 894.07 548.36 C 897.07 546.56 899.62 544.11 901.28 541.01 C 901.45 540.78 901.78 540.31 901.94 540.07 Z" />
</g>
<g id="#0057a0fe">
<path fill="#0057a0" opacity="1.00" d=" M 275.51 540.59 C 284.64 539.58 293.95 545.41 296.83 554.17 C 301.14 565.20 293.76 578.83 282.18 581.28 C 270.18 584.90 256.49 574.57 256.83 562.02 C 256.25 551.42 265.02 541.58 275.51 540.59 Z" />
</g>
<g id="#22232325">
<path fill="#222323" opacity="0.15" d=" M 445.27 541.17 C 452.69 540.73 460.17 540.60 467.59 541.23 L 466.63 541.71 C 459.83 542.32 452.99 541.85 446.18 542.15 C 445.87 562.55 445.84 582.97 446.22 603.37 C 445.80 618.96 445.94 634.57 445.96 650.17 C 446.37 650.21 447.18 650.31 447.59 650.35 C 452.43 651.06 457.34 650.75 462.21 651.08 C 456.54 651.97 450.74 651.84 445.07 651.07 C 444.71 614.44 445.67 577.80 445.27 541.17 Z" />
</g>
<g id="#2828292a">
<path fill="#282829" opacity="0.16" d=" M 481.59 541.92 C 483.97 541.07 486.52 541.07 489.02 541.15 C 517.69 541.33 546.36 540.90 575.03 540.95 C 579.41 540.69 577.45 546.37 577.71 549.04 C 576.86 553.88 579.23 559.48 576.40 563.80 L 576.45 562.49 C 577.30 555.76 577.34 548.92 576.62 542.18 C 545.27 541.76 513.91 542.21 482.55 541.96 L 481.59 541.92 Z" />
</g>
<g id="#020f59f3">
<path fill="#020f59" opacity="0.95" d=" M 894.07 548.36 C 896.11 545.57 898.56 543.13 901.28 541.01 C 899.62 544.11 897.07 546.56 894.07 548.36 Z" />
</g>
<g id="#001667f8">
<path fill="#001667" opacity="0.97" d=" M 446.18 542.15 C 452.99 541.85 459.83 542.32 466.63 541.71 C 468.57 542.61 467.65 545.25 467.98 546.95 C 467.74 580.74 468.51 614.55 467.83 648.33 C 466.63 613.45 467.72 578.47 466.45 543.57 C 460.20 543.10 453.93 543.12 447.68 543.59 C 447.80 563.10 447.48 582.62 446.89 602.12 L 446.22 603.37 C 445.84 582.97 445.87 562.55 446.18 542.15 Z" />
</g>
<g id="#000857f8">
<path fill="#000857" opacity="0.97" d=" M 482.55 541.96 C 513.91 542.21 545.27 541.76 576.62 542.18 C 575.69 548.91 575.84 555.74 576.45 562.49 L 576.40 563.80 L 575.73 562.87 L 575.10 561.98 C 574.89 555.73 575.22 549.48 574.83 543.24 C 544.62 543.06 514.41 543.45 484.20 543.33 C 483.84 549.20 483.83 555.09 484.07 560.97 C 495.29 561.63 506.56 560.54 517.75 561.45 L 518.06 562.69 C 506.12 563.08 494.14 563.13 482.21 562.73 C 481.87 555.82 481.59 548.82 482.55 541.96 Z" />
</g>
<g id="#466e99e0">
<path fill="#466e99" opacity="0.88" d=" M 576.62 542.18 C 577.34 548.92 577.30 555.76 576.45 562.49 C 575.84 555.74 575.69 548.91 576.62 542.18 Z" />
</g>
<g id="#3f53657c">
<path fill="#3f5365" opacity="0.49" d=" M 84.10 545.70 C 84.64 546.89 85.23 548.07 85.78 549.28 L 85.97 550.01 C 86.32 552.39 86.53 554.80 86.91 557.19 C 85.33 553.55 84.05 549.70 84.10 545.70 Z" />
</g>
<g id="#475b6671">
<path fill="#475b66" opacity="0.44" d=" M 380.10 560.04 C 380.91 556.23 381.81 552.45 382.96 548.73 C 382.91 552.66 381.82 556.51 380.10 560.04 Z" />
</g>
<g id="#023c9af2">
<path fill="#023c9a" opacity="0.95" d=" M 85.97 550.01 C 89.20 559.45 92.17 568.98 95.93 578.23 C 95.58 577.92 94.88 577.31 94.53 577.00 C 93.79 576.04 93.29 574.96 93.04 573.76 C 92.72 572.45 92.14 571.24 91.46 570.10 L 91.12 569.39 C 90.07 566.48 89.03 563.58 88.04 560.65 L 88.03 559.87 C 87.82 559.38 87.40 558.42 87.19 557.94 L 86.91 557.19 C 86.53 554.80 86.32 552.39 85.97 550.01 Z" />
</g>
<g id="#1e29354a">
<path fill="#1e2935" opacity="0.29" d=" M 885.06 553.42 C 886.31 552.78 887.61 552.25 889.00 551.93 C 889.59 553.92 886.11 555.01 885.06 553.42 Z" />
</g>
<g id="#49535a67">
<path fill="#49535a" opacity="0.40" d=" M 87.19 557.94 C 87.40 558.42 87.82 559.38 88.03 559.87 C 87.82 559.38 87.40 558.42 87.19 557.94 Z" />
</g>
<g id="#004d93fe">
<path fill="#004d93" opacity="1.00" d=" M 188.35 560.44 C 198.64 557.31 209.96 564.36 212.22 574.73 C 215.58 586.08 205.89 598.82 194.00 598.36 C 183.54 598.99 174.64 589.19 174.82 579.01 C 174.41 570.68 180.28 562.56 188.35 560.44 Z" />
</g>
<g id="#343f4758">
<path fill="#343f47" opacity="0.35" d=" M 88.04 560.65 C 89.03 563.58 90.07 566.48 91.12 569.39 C 89.00 566.96 88.23 563.80 88.04 560.65 Z" />
</g>
<g id="#39444b59">
<path fill="#39444b" opacity="0.35" d=" M 378.59 563.32 C 378.90 562.67 379.53 561.38 379.84 560.73 C 379.79 563.79 378.90 566.77 377.14 569.29 C 377.53 567.61 377.85 565.92 378.24 564.26 C 378.33 564.02 378.50 563.56 378.59 563.32 Z" />
</g>
<g id="#000a61fd">
<path fill="#000a61" opacity="1.00" d=" M 517.75 561.45 C 518.16 561.56 518.98 561.76 519.39 561.86 C 521.00 590.86 519.17 620.04 519.94 649.10 C 526.32 649.52 532.72 649.52 539.10 649.09 C 539.57 621.39 539.05 593.65 539.10 565.94 C 539.10 564.35 539.40 562.64 540.83 561.70 L 541.85 561.73 L 541.33 562.51 C 540.40 563.78 540.21 565.38 540.16 566.92 C 540.11 594.61 539.85 622.31 540.10 650.00 C 533.10 650.33 526.09 650.43 519.09 650.11 C 518.51 621.70 519.80 593.20 518.44 564.84 L 518.31 563.92 C 518.29 563.83 518.26 563.64 518.25 563.55 L 518.06 562.69 L 517.75 561.45 Z" />
</g>
<g id="#000a5dfd">
<path fill="#000a5d" opacity="1.00" d=" M 540.83 561.70 C 551.80 560.34 563.23 560.64 574.25 561.82 C 563.45 562.16 552.63 562.36 541.85 561.73 L 540.83 561.70 Z" />
</g>
<g id="#123b74db">
<path fill="#123b74" opacity="0.86" d=" M 541.85 561.73 C 552.63 562.36 563.45 562.16 574.25 561.82 L 575.10 561.98 L 575.73 562.87 C 565.01 563.06 554.23 563.47 543.52 562.65 C 542.97 562.62 541.88 562.54 541.33 562.51 L 541.85 561.73 Z" />
</g>
<g id="#3f638cd3">
<path fill="#3f638c" opacity="0.83" d=" M 518.25 563.55 C 518.26 563.64 518.29 563.83 518.31 563.92 C 518.29 563.83 518.26 563.64 518.25 563.55 Z" />
<path fill="#3f638c" opacity="0.83" d=" M 540.16 566.92 C 540.21 565.38 540.40 563.78 541.33 562.51 C 541.88 562.54 542.97 562.62 543.52 562.65 C 542.61 563.63 540.96 564.39 541.10 565.96 C 540.71 594.23 541.77 622.57 540.68 650.81 C 533.18 651.50 525.58 651.03 518.07 650.70 C 517.87 622.04 517.59 593.31 518.41 564.66 L 518.44 564.84 C 519.80 593.20 518.51 621.70 519.09 650.11 C 526.09 650.43 533.10 650.33 540.10 650.00 C 539.85 622.31 540.11 594.61 540.16 566.92 Z" />
</g>
<g id="#034ca6f3">
<path fill="#034ca6" opacity="0.95" d=" M 365.94 589.77 C 371.29 581.88 373.80 572.60 378.24 564.26 C 377.85 565.92 377.53 567.61 377.14 569.29 L 376.85 569.96 C 376.62 570.44 376.16 571.38 375.93 571.85 L 375.83 572.65 C 374.86 574.96 373.83 577.24 372.88 579.57 L 372.44 580.60 C 372.41 580.67 372.34 580.82 372.31 580.89 L 371.64 582.37 C 371.60 582.46 371.51 582.65 371.47 582.74 L 370.68 584.35 C 370.63 584.44 370.53 584.63 370.48 584.72 L 369.61 586.25 C 369.56 586.33 369.47 586.50 369.42 586.58 L 368.62 587.77 C 367.65 589.08 366.82 590.49 366.07 591.96 L 365.56 592.83 C 364.66 594.13 363.84 595.48 363.14 596.91 L 362.71 597.66 C 361.89 598.25 361.35 599.04 361.10 600.02 L 360.79 600.61 C 359.21 602.81 357.59 604.97 356.03 607.18 C 355.71 607.55 355.08 608.30 354.77 608.67 C 353.68 609.66 352.55 610.60 351.47 611.60 C 355.96 604.10 361.76 597.47 365.94 589.77 Z" />
</g>
<g id="#2b333c4b">
<path fill="#2b333c" opacity="0.29" d=" M 91.46 570.10 C 92.14 571.24 92.72 572.45 93.04 573.76 C 91.09 574.64 89.81 571.11 91.46 570.10 Z" />
</g>
<g id="#2e39424e">
<path fill="#2e3942" opacity="0.31" d=" M 372.88 579.57 C 373.83 577.24 374.86 574.96 375.83 572.65 C 375.61 575.23 374.62 577.63 372.88 579.57 Z" />
</g>
<g id="#2841648a">
<path fill="#284164" opacity="0.54" d=" M 94.53 577.00 C 94.88 577.31 95.58 577.92 95.93 578.23 L 96.26 578.98 C 96.24 579.37 96.20 580.14 96.18 580.53 C 94.55 581.06 93.58 578.09 94.53 577.00 Z" />
</g>
<g id="#053690e9">
<path fill="#053690" opacity="0.91" d=" M 96.26 578.98 C 98.32 582.73 100.12 586.61 101.67 590.60 C 101.25 590.26 100.41 589.58 99.99 589.24 L 99.40 588.40 C 99.37 588.34 99.29 588.21 99.26 588.14 L 98.61 586.77 C 98.58 586.69 98.51 586.53 98.48 586.45 L 98.00 585.19 C 97.67 583.97 97.01 582.89 96.24 581.92 L 96.18 580.53 C 96.20 580.14 96.24 579.37 96.26 578.98 Z" />
</g>
<g id="#2f333539">
<path fill="#2f3335" opacity="0.22" d=" M 96.24 581.92 C 97.01 582.89 97.67 583.97 98.00 585.19 C 96.31 585.85 94.95 583.03 96.24 581.92 Z" />
</g>
<g id="#4e555960">
<path fill="#4e5559" opacity="0.38" d=" M 369.42 586.58 C 369.47 586.50 369.56 586.33 369.61 586.25 C 369.56 586.33 369.47 586.50 369.42 586.58 Z" />
</g>
<g id="#2534414f">
<path fill="#253441" opacity="0.31" d=" M 366.07 591.96 C 366.82 590.49 367.65 589.08 368.62 587.77 C 369.95 589.31 368.14 592.83 366.07 591.96 Z" />
</g>
<g id="#2734465d">
<path fill="#273446" opacity="0.36" d=" M 99.99 589.24 C 100.41 589.58 101.25 590.26 101.67 590.60 L 102.10 590.94 C 101.55 592.67 102.75 594.16 103.95 595.28 L 104.23 596.14 C 101.41 595.00 100.84 591.79 99.99 589.24 Z" />
</g>
<g id="#00328fec">
<path fill="#00328f" opacity="0.93" d=" M 102.10 590.94 C 103.79 591.70 104.50 593.52 103.95 595.28 C 102.75 594.16 101.55 592.67 102.10 590.94 Z" />
</g>
<g id="#29343e4f">
<path fill="#29343e" opacity="0.31" d=" M 363.14 596.91 C 363.84 595.48 364.66 594.13 365.56 592.83 C 367.08 594.28 365.17 597.86 363.14 596.91 Z" />
</g>
<g id="#26334458">
<path fill="#263344" opacity="0.35" d=" M 104.97 597.90 C 105.88 598.92 106.83 599.90 107.75 600.92 C 108.15 602.05 108.56 603.19 108.97 604.33 C 107.01 602.63 105.67 600.39 104.97 597.90 Z" />
</g>
<g id="#004f96fe">
<path fill="#004f96" opacity="1.00" d=" M 299.38 598.46 C 303.34 597.78 304.39 603.45 301.16 605.22 C 280.13 621.92 253.20 632.79 226.04 631.01 C 222.15 631.02 219.75 625.32 223.25 623.10 C 227.47 622.25 231.81 622.81 236.09 622.54 C 254.56 621.65 272.38 614.84 287.83 604.86 C 291.62 602.65 295.08 599.65 299.38 598.46 Z" />
</g>
<g id="#3b464b54">
<path fill="#3b464b" opacity="0.33" d=" M 361.10 600.02 C 361.35 599.04 361.89 598.25 362.71 597.66 C 363.44 599.35 362.91 600.14 361.10 600.02 Z" />
</g>
<g id="#08398de5">
<path fill="#08398d" opacity="0.90" d=" M 107.75 600.92 C 109.70 602.86 111.36 605.09 112.50 607.62 C 111.42 606.66 110.30 605.77 109.23 604.84 L 108.97 604.33 C 108.56 603.19 108.15 602.05 107.75 600.92 Z" />
</g>
<g id="#272f353f">
<path fill="#272f35" opacity="0.25" d=" M 356.03 607.18 C 357.59 604.97 359.21 602.81 360.79 600.61 C 360.06 603.33 358.66 605.91 356.03 607.18 Z" />
</g>
<g id="#00277bfb">
<path fill="#00277b" opacity="1.00" d=" M 446.22 603.37 L 446.89 602.12 C 449.11 617.61 446.28 633.28 447.54 648.84 C 454.17 649.20 460.82 648.77 467.42 649.55 C 460.81 649.70 454.18 649.76 447.59 650.35 C 447.18 650.31 446.37 650.21 445.96 650.17 C 445.94 634.57 445.80 618.96 446.22 603.37 Z" />
</g>
<g id="#222d3e53">
<path fill="#222d3e" opacity="0.33" d=" M 109.23 604.84 C 110.30 605.77 111.42 606.66 112.50 607.62 L 112.72 608.07 C 113.00 609.70 114.09 611.03 115.69 611.55 L 115.95 611.89 C 116.76 613.41 117.54 614.96 118.32 616.51 C 114.34 613.50 111.56 609.18 109.23 604.84 Z" />
</g>
<g id="#003a95f1">
<path fill="#003a95" opacity="0.95" d=" M 112.72 608.07 C 114.70 607.89 115.63 609.86 115.69 611.55 C 114.09 611.03 113.00 609.70 112.72 608.07 Z" />
</g>
<g id="#1e2b3e55">
<path fill="#1e2b3e" opacity="0.33" d=" M 351.47 611.60 C 352.55 610.60 353.68 609.66 354.77 608.67 C 352.90 612.28 350.61 616.02 346.97 618.06 L 347.24 617.29 C 348.60 616.20 349.74 614.86 350.46 613.27 C 350.71 612.85 351.22 612.02 351.47 611.60 Z" />
</g>
<g id="#01308ded">
<path fill="#01308d" opacity="0.93" d=" M 115.95 611.89 C 117.33 613.50 118.65 615.18 119.80 616.97 L 118.53 616.57 C 118.48 616.56 118.37 616.53 118.32 616.51 C 117.54 614.96 116.76 613.41 115.95 611.89 Z" />
</g>
<g id="#003896ef">
<path fill="#003896" opacity="0.94" d=" M 347.24 617.29 C 346.80 615.19 348.04 612.86 350.46 613.27 C 349.74 614.86 348.60 616.20 347.24 617.29 Z" />
</g>
<g id="#21242a32">
<path fill="#21242a" opacity="0.20" d=" M 118.53 616.57 L 119.80 616.97 C 120.01 617.25 120.44 617.82 120.65 618.10 C 124.34 623.80 129.67 628.10 134.64 632.62 L 135.18 633.15 C 131.54 632.62 129.38 629.45 126.91 627.09 C 123.82 623.84 119.98 621.00 118.53 616.57 Z" />
</g>
<g id="#053189e5">
<path fill="#053189" opacity="0.90" d=" M 120.65 618.10 C 125.85 622.36 131.10 626.81 134.64 632.62 C 129.67 628.10 124.34 623.80 120.65 618.10 Z" />
</g>
<g id="#2e5186c6">
<path fill="#2e5186" opacity="0.78" d=" M 343.89 620.78 C 344.07 619.61 344.71 618.97 345.80 618.87 C 346.14 620.48 345.50 621.11 343.89 620.78 Z" />
</g>
<g id="#04499ef0">
<path fill="#04499e" opacity="0.94" d=" M 333.88 630.34 C 335.57 626.55 338.55 623.58 342.58 622.40 C 340.64 624.21 338.92 626.24 337.07 628.16 C 336.83 628.34 336.34 628.72 336.10 628.91 C 335.54 629.26 334.44 629.98 333.88 630.34 Z" />
</g>
<g id="#28394b67">
<path fill="#28394b" opacity="0.40" d=" M 342.58 622.40 L 343.24 621.82 C 342.55 624.98 339.56 626.55 337.07 628.16 C 338.92 626.24 340.64 624.21 342.58 622.40 Z" />
</g>
<g id="#1e2b4058">
<path fill="#1e2b40" opacity="0.35" d=" M 333.88 630.34 C 334.44 629.98 335.54 629.26 336.10 628.91 C 333.67 632.90 329.58 635.63 325.59 637.88 C 326.62 636.76 327.60 635.61 328.64 634.51 C 330.42 633.15 332.17 631.76 333.88 630.34 Z" />
</g>
<g id="#043d93ea">
<path fill="#043d93" opacity="0.92" d=" M 307.12 649.27 C 313.96 643.90 321.27 639.11 328.64 634.51 C 327.60 635.61 326.62 636.76 325.59 637.88 C 324.85 638.61 324.01 639.23 323.15 639.82 C 319.58 642.00 316.18 644.43 312.77 646.85 L 312.23 647.16 C 310.54 647.89 308.81 648.53 307.12 649.27 Z" />
</g>
<g id="#222b384c">
<path fill="#222b38" opacity="0.30" d=" M 136.52 634.94 C 137.57 635.34 138.61 635.79 139.63 636.29 C 139.92 636.44 140.49 636.75 140.78 636.91 C 143.77 639.35 146.71 641.88 149.90 644.07 C 144.70 642.35 140.41 638.68 136.52 634.94 Z" />
</g>
<g id="#003893ef">
<path fill="#003893" opacity="0.94" d=" M 140.78 636.91 C 145.46 638.74 149.65 641.57 153.14 645.18 C 152.06 644.80 150.98 644.43 149.90 644.07 C 146.71 641.88 143.77 639.35 140.78 636.91 Z" />
</g>
<g id="#23282e39">
<path fill="#23282e" opacity="0.22" d=" M 312.77 646.85 C 316.18 644.43 319.58 642.00 323.15 639.82 C 320.79 643.46 316.78 645.55 312.77 646.85 Z" />
</g>
<g id="#172b4f7b">
<path fill="#172b4f" opacity="0.48" d=" M 149.90 644.07 C 150.98 644.43 152.06 644.80 153.14 645.18 C 158.95 649.18 165.31 652.31 171.76 655.12 C 174.17 656.30 176.68 657.26 179.23 658.09 C 180.07 658.43 180.90 658.79 181.74 659.15 C 182.62 659.71 183.50 660.28 184.38 660.85 C 172.09 657.39 160.17 651.57 149.90 644.07 Z" />
</g>
<g id="#1e293647">
<path fill="#1e2936" opacity="0.28" d=" M 307.12 649.27 C 308.81 648.53 310.54 647.89 312.23 647.16 C 306.84 651.56 300.48 655.53 293.55 656.78 C 297.95 654.96 302.12 652.64 306.04 649.94 C 306.31 649.77 306.85 649.44 307.12 649.27 Z" />
</g>
<g id="#013690ec">
<path fill="#013690" opacity="0.93" d=" M 266.00 664.81 C 279.87 661.27 292.91 655.50 306.04 649.94 C 302.12 652.64 297.95 654.96 293.55 656.78 L 292.75 657.04 C 291.41 657.38 290.14 657.93 288.92 658.56 L 287.90 658.94 C 286.54 659.35 285.23 659.92 283.97 660.57 L 282.92 660.92 C 282.43 661.14 281.45 661.58 280.96 661.79 L 279.85 661.88 C 279.37 662.11 278.40 662.56 277.91 662.78 L 276.82 662.83 C 275.79 662.71 274.88 662.99 274.08 663.66 L 273.29 664.03 C 270.86 664.32 268.42 664.47 266.00 664.81 Z" />
</g>
<g id="#003591ed">
<path fill="#003591" opacity="0.93" d=" M 171.76 655.12 C 174.35 655.84 176.86 656.81 179.23 658.09 C 176.68 657.26 174.17 656.30 171.76 655.12 Z" />
</g>
<g id="#212d3b53">
<path fill="#212d3b" opacity="0.33" d=" M 288.92 658.56 C 290.14 657.93 291.41 657.38 292.75 657.04 C 293.52 659.03 289.95 660.18 288.92 658.56 Z" />
</g>
<g id="#0a317ac8">
<path fill="#0a317a" opacity="0.78" d=" M 181.74 659.15 C 195.61 663.74 209.91 666.38 224.36 668.27 C 221.13 668.00 217.88 668.07 214.65 667.93 L 213.80 667.64 C 212.69 667.10 211.50 666.80 210.28 666.95 C 202.32 666.66 194.63 664.02 187.05 661.79 C 186.56 661.60 185.58 661.20 185.10 661.01 L 184.38 660.85 C 183.50 660.28 182.62 659.71 181.74 659.15 Z" />
</g>
<g id="#202b384d">
<path fill="#202b38" opacity="0.30" d=" M 283.97 660.57 C 285.23 659.92 286.54 659.35 287.90 658.94 C 288.59 660.94 285.08 662.12 283.97 660.57 Z" />
</g>
<g id="#36414c61">
<path fill="#36414c" opacity="0.38" d=" M 185.10 661.01 C 185.58 661.20 186.56 661.60 187.05 661.79 C 186.56 661.60 185.58 661.20 185.10 661.01 Z" />
</g>
<g id="#323b4452">
<path fill="#323b44" opacity="0.32" d=" M 280.96 661.79 C 281.45 661.58 282.43 661.14 282.92 660.92 C 282.43 661.14 281.45 661.58 280.96 661.79 Z" />
</g>
<g id="#323d495e">
<path fill="#323d49" opacity="0.37" d=" M 274.08 663.66 C 274.88 662.99 275.79 662.71 276.82 662.83 C 276.40 664.53 275.48 664.81 274.08 663.66 Z" />
</g>
<g id="#212e3f5b">
<path fill="#212e3f" opacity="0.36" d=" M 266.00 664.81 C 268.42 664.47 270.86 664.32 273.29 664.03 C 270.51 665.32 267.49 666.32 264.40 665.70 L 265.35 665.04 L 266.00 664.81 Z" />
</g>
<g id="#00328fed">
<path fill="#00328f" opacity="0.93" d=" M 239.72 668.05 C 248.25 666.94 256.78 665.75 265.35 665.04 L 264.40 665.70 L 263.93 666.01 C 260.18 666.61 256.42 667.14 252.68 667.77 L 251.97 667.84 C 247.88 667.96 243.80 667.82 239.72 668.05 Z" />
</g>
<g id="#212e3d56">
<path fill="#212e3d" opacity="0.34" d=" M 252.68 667.77 C 256.42 667.14 260.18 666.61 263.93 666.01 C 260.74 668.41 256.40 667.50 252.68 667.77 Z" />
</g>
<g id="#23324360">
<path fill="#233243" opacity="0.38" d=" M 210.28 666.95 C 211.50 666.80 212.69 667.10 213.80 667.64 C 213.12 669.09 209.96 668.78 210.28 666.95 Z" />
</g>
<g id="#212e3f5a">
<path fill="#212e3f" opacity="0.35" d=" M 214.65 667.93 C 217.88 668.07 221.13 668.00 224.36 668.27 L 225.54 668.40 L 224.56 668.72 C 221.30 669.69 217.85 668.69 214.65 667.93 Z" />
</g>
<g id="#0f2e639f">
<path fill="#0f2e63" opacity="0.62" d=" M 225.54 668.40 C 230.27 668.31 235.00 668.50 239.72 668.05 C 243.80 667.82 247.88 667.96 251.97 667.84 C 242.97 669.50 233.64 669.47 224.56 668.72 L 225.54 668.40 Z" />
</g>
</svg>
