<?xml version="1.0" encoding="UTF-8" ?>
<!DOCTYPE svg PUBLIC "-//W3C//DTD SVG 1.1//EN" "http://www.w3.org/Graphics/SVG/1.1/DTD/svg11.dtd">
<svg width="1024pt" height="1024pt" viewBox="0 0 1024 1024" version="1.1" xmlns="http://www.w3.org/2000/svg">
<g id="#fefaf5ff">
</g>
<g id="#0062b0ff">
<path fill="#0062b0" opacity="1.00" d=" M 221.47 356.63 C 234.81 355.50 248.35 355.44 261.61 357.50 C 264.18 358.00 266.92 358.33 269.15 359.82 C 273.86 362.84 275.05 370.04 271.69 374.48 C 264.35 380.33 261.58 389.97 260.12 398.88 C 259.12 411.43 261.57 424.74 269.09 435.07 C 272.46 439.66 276.82 443.53 281.90 446.13 C 284.28 447.31 286.80 449.16 287.06 452.02 C 287.42 456.75 285.25 461.37 286.26 466.12 C 288.17 476.77 293.39 487.28 302.27 493.77 C 307.91 498.28 314.95 500.47 321.96 501.72 C 324.81 502.10 327.46 503.77 328.72 506.41 C 332.51 513.51 340.34 517.11 347.84 518.85 C 356.00 520.89 364.70 520.30 372.62 517.54 C 376.19 516.21 380.55 517.00 382.84 520.22 C 385.83 523.41 384.99 528.03 384.96 532.01 C 383.28 552.65 377.24 573.01 366.90 590.99 C 347.56 623.53 317.00 649.90 280.84 661.78 C 249.36 671.84 214.53 671.76 183.36 660.55 C 155.20 650.81 129.85 632.68 112.28 608.55 C 91.27 580.03 79.96 544.44 80.98 509.01 C 81.46 487.71 86.09 466.42 95.15 447.09 C 105.88 423.89 122.33 403.38 142.51 387.72 C 165.12 370.06 192.91 359.19 221.47 356.63 M 220.21 371.45 C 201.89 373.93 184.00 379.74 167.83 388.74 C 148.99 399.49 132.32 414.23 119.92 432.08 C 104.70 453.61 96.05 479.67 95.44 506.04 C 93.82 546.32 108.97 587.66 138.49 615.51 C 161.15 637.20 192.88 649.64 224.32 647.27 C 227.18 646.77 230.07 646.77 232.96 646.72 C 259.18 643.90 284.43 633.40 305.17 617.15 C 331.46 596.64 351.65 567.79 360.23 535.46 C 357.18 535.59 354.13 535.42 351.11 534.95 C 344.91 552.44 336.69 569.45 324.86 583.86 C 323.25 585.66 321.65 587.51 319.75 589.02 C 317.68 590.28 315.40 588.05 315.74 585.91 C 315.23 582.54 317.02 579.53 319.12 577.07 C 329.66 563.97 336.91 548.64 343.10 533.11 C 335.53 530.31 328.45 526.01 322.88 520.12 C 321.16 518.48 319.67 516.11 317.06 515.95 C 302.89 514.21 290.21 505.36 282.26 493.71 C 274.94 483.42 271.76 470.73 271.71 458.22 C 268.37 454.67 264.33 451.72 261.59 447.59 C 245.42 426.75 243.99 395.91 258.38 373.77 C 254.40 371.25 249.53 371.26 245.03 370.46 C 236.76 370.31 228.34 369.66 220.21 371.45 Z" />
<path fill="#0062b0" opacity="1.00" d=" M 193.52 416.89 C 197.38 416.62 201.47 416.88 204.83 419.00 C 212.10 422.99 215.54 432.36 213.18 440.19 C 211.48 446.90 205.62 452.37 198.78 453.54 C 191.96 455.29 184.45 451.98 180.54 446.25 C 175.39 438.95 176.51 428.11 182.89 421.90 C 185.75 419.15 189.45 416.95 193.52 416.89 Z" />
<path fill="#0062b0" opacity="1.00" d=" M 235.42 476.28 C 241.32 474.36 248.40 478.20 249.38 484.47 C 251.21 490.95 245.83 498.31 239.00 498.08 C 231.29 498.77 225.61 489.59 228.70 482.76 C 229.95 479.83 232.37 477.32 235.42 476.28 Z" />
<path fill="#0062b0" opacity="1.00" d=" M 151.49 482.60 C 159.57 480.52 168.74 483.59 173.94 490.11 C 178.99 496.33 180.42 505.21 177.93 512.77 C 173.96 524.77 159.48 532.21 147.53 527.54 C 135.32 523.25 129.73 507.71 135.04 496.21 C 138.20 489.63 144.26 484.18 151.49 482.60 Z" />
<path fill="#0062b0" opacity="1.00" d=" M 272.31 541.08 C 280.73 538.75 290.54 542.45 294.97 550.06 C 299.64 557.43 299.03 567.66 293.42 574.37 C 288.23 580.78 278.96 583.71 271.08 581.11 C 262.59 578.56 256.12 569.97 256.68 561.02 C 256.75 551.90 263.48 543.33 272.31 541.08 Z" />
<path fill="#0062b0" opacity="1.00" d=" M 188.36 560.25 C 192.96 559.41 198.05 559.27 202.24 561.64 C 210.39 565.82 215.03 576.12 212.14 584.92 C 209.63 594.82 198.11 601.04 188.41 597.89 C 178.29 595.10 172.55 583.32 175.28 573.43 C 176.93 567.16 182.08 561.91 188.36 560.25 Z" />
<path fill="#0062b0" opacity="1.00" d=" M 295.10 600.06 C 296.65 599.07 298.39 598.45 300.09 597.80 C 301.13 598.81 303.35 599.28 303.25 601.03 C 303.81 604.18 300.58 605.90 298.55 607.63 C 277.47 622.97 251.49 633.41 225.07 631.17 C 222.87 630.38 221.19 628.27 221.09 625.90 C 222.63 620.79 228.98 622.64 232.98 622.17 C 246.60 622.40 259.96 618.68 272.36 613.23 C 280.37 609.62 287.67 604.69 295.10 600.06 Z" />
</g>
<g id="#0cc0ffff">
<path fill="#0cc0ff" opacity="1.00" d=" M 332.29 363.02 C 337.83 362.99 343.39 362.92 348.94 363.05 C 350.26 363.03 351.10 364.39 351.76 365.37 C 351.92 369.92 351.63 374.47 351.75 379.02 C 351.71 381.05 352.11 383.26 350.93 385.07 C 344.41 384.92 337.88 385.21 331.38 384.94 C 331.05 384.64 330.39 384.02 330.06 383.72 C 329.85 377.55 330.02 371.38 329.97 365.21 C 330.74 364.48 331.51 363.75 332.29 363.02 Z" />
<path fill="#0cc0ff" opacity="1.00" d=" M 220.21 371.45 C 228.34 369.66 236.76 370.31 245.03 370.46 C 249.53 371.26 254.40 371.25 258.38 373.77 C 243.99 395.91 245.42 426.75 261.59 447.59 C 264.33 451.72 268.37 454.67 271.71 458.22 C 271.76 470.73 274.94 483.42 282.26 493.71 C 290.21 505.36 302.89 514.21 317.06 515.95 C 319.67 516.11 321.16 518.48 322.88 520.12 C 328.45 526.01 335.53 530.31 343.10 533.11 C 336.91 548.64 329.66 563.97 319.12 577.07 C 317.02 579.53 315.23 582.54 315.74 585.91 C 315.40 588.05 317.68 590.28 319.75 589.02 C 321.65 587.51 323.25 585.66 324.86 583.86 C 336.69 569.45 344.91 552.44 351.11 534.95 C 354.13 535.42 357.18 535.59 360.23 535.46 C 351.65 567.79 331.46 596.64 305.17 617.15 C 284.43 633.40 259.18 643.90 232.96 646.72 C 230.07 646.77 227.18 646.77 224.32 647.27 C 192.88 649.64 161.15 637.20 138.49 615.51 C 108.97 587.66 93.82 546.32 95.44 506.04 C 96.05 479.67 104.70 453.61 119.92 432.08 C 132.32 414.23 148.99 399.49 167.83 388.74 C 184.00 379.74 201.89 373.93 220.21 371.45 M 193.52 416.89 C 189.45 416.95 185.75 419.15 182.89 421.90 C 176.51 428.11 175.39 438.95 180.54 446.25 C 184.45 451.98 191.96 455.29 198.78 453.54 C 205.62 452.37 211.48 446.90 213.18 440.19 C 215.54 432.36 212.10 422.99 204.83 419.00 C 201.47 416.88 197.38 416.62 193.52 416.89 M 235.42 476.28 C 232.37 477.32 229.95 479.83 228.70 482.76 C 225.61 489.59 231.29 498.77 239.00 498.08 C 245.83 498.31 251.21 490.95 249.38 484.47 C 248.40 478.20 241.32 474.36 235.42 476.28 M 151.49 482.60 C 144.26 484.18 138.20 489.63 135.04 496.21 C 129.73 507.71 135.32 523.25 147.53 527.54 C 159.48 532.21 173.96 524.77 177.93 512.77 C 180.42 505.21 178.99 496.33 173.94 490.11 C 168.74 483.59 159.57 480.52 151.49 482.60 M 272.31 541.08 C 263.48 543.33 256.75 551.90 256.68 561.02 C 256.12 569.97 262.59 578.56 271.08 581.11 C 278.96 583.71 288.23 580.78 293.42 574.37 C 299.03 567.66 299.64 557.43 294.97 550.06 C 290.54 542.45 280.73 538.75 272.31 541.08 M 188.36 560.25 C 182.08 561.91 176.93 567.16 175.28 573.43 C 172.55 583.32 178.29 595.10 188.41 597.89 C 198.11 601.04 209.63 594.82 212.14 584.92 C 215.03 576.12 210.39 565.82 202.24 561.64 C 198.05 559.27 192.96 559.41 188.36 560.25 M 295.10 600.06 C 287.67 604.69 280.37 609.62 272.36 613.23 C 259.96 618.68 246.60 622.40 232.98 622.17 C 228.98 622.64 222.63 620.79 221.09 625.90 C 221.19 628.27 222.87 630.38 225.07 631.17 C 251.49 633.41 277.47 622.97 298.55 607.63 C 300.58 605.90 303.81 604.18 303.25 601.03 C 303.35 599.28 301.13 598.81 300.09 597.80 C 298.39 598.45 296.65 599.07 295.10 600.06 Z" />
<path fill="#0cc0ff" opacity="1.00" d=" M 294.00 397.99 C 293.79 395.84 295.37 394.21 296.87 392.93 C 304.93 393.10 313.00 392.94 321.07 393.00 C 323.59 392.91 325.98 395.47 325.77 397.98 C 325.69 406.02 325.76 414.05 325.73 422.09 C 325.78 424.05 324.27 426.45 322.06 426.03 C 313.75 426.05 305.44 425.96 297.12 426.06 C 295.59 424.77 293.73 423.24 294.00 420.99 C 293.99 413.33 294.00 405.66 294.00 397.99 Z" />
<path fill="#0cc0ff" opacity="1.00" d=" M 360.13 406.05 C 366.12 405.87 372.13 406.08 378.12 405.97 C 379.92 405.68 382.38 406.75 381.99 408.94 C 382.07 414.93 381.91 420.94 382.06 426.94 C 381.09 427.66 380.41 429.19 379.01 429.01 C 372.73 429.02 366.45 429.11 360.18 428.93 C 359.90 428.66 359.34 428.12 359.06 427.85 C 358.90 420.93 358.95 414.00 359.04 407.08 C 359.31 406.82 359.86 406.31 360.13 406.05 Z" />
<path fill="#0cc0ff" opacity="1.00" d=" M 332.18 442.94 C 345.46 442.54 358.76 442.79 372.05 442.82 C 374.81 442.59 377.28 445.24 377.04 447.96 C 377.04 459.00 377.02 470.05 377.03 481.10 C 377.32 484.34 374.38 487.54 371.04 487.05 C 359.01 487.10 346.98 487.08 334.95 487.07 C 331.11 487.59 328.81 483.38 329.09 480.02 C 329.19 469.36 329.07 458.68 329.22 448.02 C 329.15 445.88 330.89 444.40 332.18 442.94 Z" />
</g>
<g id="#004184ff">
<path fill="#004184" opacity="1.00" d=" M 452.71 414.72 C 463.33 403.66 478.80 397.99 493.98 397.98 C 507.82 397.61 522.12 401.19 533.21 409.73 C 540.09 414.92 545.57 421.90 549.17 429.72 C 542.05 432.59 535.37 436.42 528.29 439.36 C 524.39 430.80 517.12 423.57 508.01 420.81 C 499.01 418.30 489.12 418.88 480.53 422.58 C 469.97 427.34 463.25 438.13 461.39 449.30 C 460.21 458.12 460.64 467.39 464.24 475.64 C 468.31 484.73 476.28 492.16 485.96 494.83 C 500.86 499.82 519.17 493.87 527.01 479.94 C 527.94 477.69 530.22 479.68 531.63 480.26 C 537.41 483.00 543.16 485.85 548.98 488.52 C 542.91 502.14 529.79 511.26 515.94 515.77 C 503.61 519.29 490.28 519.53 477.91 516.07 C 463.39 511.98 450.64 501.88 443.65 488.47 C 436.88 475.87 434.36 461.02 436.83 446.92 C 438.62 434.87 444.44 423.59 452.71 414.72 Z" />
<path fill="#004184" opacity="1.00" d=" M 803.27 407.00 C 810.90 407.00 818.54 407.01 826.18 406.99 C 825.93 414.98 826.19 422.98 826.06 430.97 C 833.37 431.02 840.69 430.99 848.00 431.00 C 848.00 437.31 848.00 443.63 848.00 449.94 C 840.68 449.73 833.36 449.87 826.04 449.83 C 826.16 461.91 826.00 473.98 826.11 486.05 C 826.47 490.31 827.52 495.27 831.51 497.59 C 836.56 500.45 842.72 499.34 848.00 497.76 C 847.99 503.79 848.00 509.83 848.00 515.86 C 840.94 518.11 833.44 518.69 826.10 517.77 C 818.89 516.41 812.05 512.35 808.20 505.99 C 804.06 499.49 803.41 491.55 803.30 484.05 C 803.37 472.62 803.18 461.20 803.43 449.79 C 799.50 449.80 795.58 449.73 791.67 449.98 C 791.52 443.65 791.75 437.32 791.50 431.00 C 795.48 431.00 799.46 431.01 803.45 430.99 C 803.14 422.99 803.43 414.99 803.27 407.00 Z" />
<path fill="#004184" opacity="1.00" d=" M 722.78 439.93 C 729.42 431.64 740.69 428.60 750.95 428.97 C 763.43 429.27 777.36 433.84 783.71 445.42 C 784.80 447.00 782.54 447.77 781.57 448.56 C 777.15 451.11 773.13 454.40 768.38 456.29 C 765.04 452.31 761.44 447.88 756.15 446.60 C 750.84 445.15 744.24 445.96 740.59 450.44 C 737.99 453.75 739.66 458.95 743.61 460.28 C 755.13 465.04 768.71 465.24 778.84 473.16 C 785.61 478.27 787.30 487.63 785.35 495.51 C 783.93 502.79 779.01 509.02 772.73 512.81 C 762.73 519.01 750.20 519.85 738.92 517.26 C 729.18 515.06 719.89 509.25 715.22 500.19 C 720.31 495.90 726.17 492.63 731.64 488.84 C 734.72 494.55 740.30 499.16 746.87 499.93 C 751.32 500.30 756.28 500.77 760.20 498.18 C 763.26 496.31 765.17 492.09 763.30 488.76 C 761.98 485.62 758.60 484.29 755.61 483.33 C 746.16 480.82 736.35 479.02 727.70 474.26 C 722.69 471.61 719.18 466.52 718.22 460.96 C 717.32 453.74 717.99 445.77 722.78 439.93 Z" />
<path fill="#004184" opacity="1.00" d=" M 590.44 433.31 C 596.39 430.07 603.34 429.76 609.95 430.00 C 611.18 430.23 613.30 429.41 613.75 431.12 C 613.74 437.78 613.63 444.46 613.81 451.13 C 605.70 449.39 596.44 450.40 589.99 456.01 C 585.68 459.66 583.85 465.50 583.99 471.02 C 584.01 486.01 583.99 501.00 584.00 516.00 C 576.33 516.00 568.66 516.00 560.99 516.00 C 561.00 487.66 561.01 459.33 560.99 431.00 C 567.62 431.00 574.25 431.00 580.88 431.00 C 581.19 434.11 582.20 437.12 582.08 440.27 C 584.63 437.69 587.12 434.91 590.44 433.31 Z" />
<path fill="#004184" opacity="1.00" d=" M 623.97 431.00 C 631.52 431.03 639.07 430.94 646.63 431.04 C 646.40 447.68 646.60 464.33 646.59 480.97 C 646.40 486.04 647.79 491.65 652.06 494.80 C 660.60 500.94 674.21 497.08 678.61 487.58 C 679.96 484.57 681.06 481.33 681.00 478.00 C 681.00 462.33 681.00 446.66 681.00 431.00 C 688.87 431.01 696.73 430.98 704.60 431.01 C 704.53 459.33 704.42 487.67 704.69 516.00 C 697.14 515.99 689.59 516.02 682.05 515.99 C 681.98 512.88 681.96 509.77 681.83 506.67 C 679.28 508.51 677.77 511.47 674.97 513.05 C 664.37 520.80 648.91 520.11 638.26 512.79 C 628.79 506.58 624.11 495.02 623.98 483.99 C 624.01 466.33 624.02 448.66 623.97 431.00 Z" />
<path fill="#004184" opacity="1.00" d=" M 855.83 430.98 C 864.20 431.06 872.58 430.92 880.95 431.03 L 881.45 431.45 C 888.71 450.40 896.26 469.24 903.47 488.21 C 910.32 469.12 917.80 450.25 924.20 431.00 C 932.47 430.98 940.74 431.04 949.01 430.96 C 937.84 458.37 926.12 485.55 915.20 513.07 C 911.24 522.55 908.24 532.63 902.02 540.98 C 898.79 545.45 894.59 549.21 889.72 551.81 C 881.46 555.85 871.99 555.66 863.04 555.14 C 863.32 548.73 863.24 542.30 863.09 535.89 C 869.63 535.92 876.89 535.58 882.19 531.23 C 886.74 527.20 888.31 521.06 890.53 515.63 C 891.80 513.25 890.18 510.85 889.25 508.70 C 878.13 482.79 867.28 456.74 855.83 430.98 Z" />
<path fill="#004184" opacity="1.00" d=" M 446.00 542.00 C 453.33 542.00 460.66 542.00 468.00 542.00 C 468.02 578.29 467.97 614.59 468.03 650.88 C 460.68 650.71 453.34 650.75 446.00 650.80 C 446.00 614.53 446.00 578.27 446.00 542.00 Z" />
<path fill="#004184" opacity="1.00" d=" M 482.24 542.00 C 513.77 542.01 545.29 542.00 576.81 542.00 C 576.56 548.94 576.64 555.90 576.73 562.85 C 564.70 563.04 552.67 562.97 540.64 562.87 C 540.96 592.19 540.61 621.52 540.77 650.84 C 533.28 650.67 525.79 650.84 518.30 650.75 C 518.55 621.49 518.08 592.22 518.54 562.97 C 506.44 562.94 494.34 563.01 482.24 562.91 C 482.37 555.94 482.38 548.96 482.24 542.00 Z" />
</g>
</svg>
