<?xml version="1.0" encoding="UTF-8" ?>
<!DOCTYPE svg PUBLIC "-//W3C//DTD SVG 1.1//EN" "http://www.w3.org/Graphics/SVG/1.1/DTD/svg11.dtd">
<svg width="1024pt" height="1024pt" viewBox="0 0 1024 1024" version="1.1" xmlns="http://www.w3.org/2000/svg">
<g id="#fefaf4ff">
</g>
<g id="#0062afff">
<path fill="#0062af" opacity="1.00" d=" M 473.40 196.63 C 488.15 195.50 503.21 195.24 517.75 198.36 C 523.67 199.48 527.11 206.43 525.01 211.94 C 524.13 215.37 520.37 216.71 518.74 219.67 C 514.12 227.56 511.45 236.74 511.91 245.92 C 512.25 260.05 517.62 274.96 529.47 283.43 C 532.58 285.94 537.40 286.84 538.87 290.99 C 539.85 295.72 537.36 300.35 538.14 305.11 C 539.26 313.18 542.58 320.98 547.59 327.41 C 554.03 335.43 563.75 340.20 573.82 341.70 C 580.17 342.02 581.17 349.26 585.64 352.38 C 594.25 358.97 605.80 361.04 616.40 359.60 C 620.37 359.16 624.02 357.28 627.99 356.95 C 632.21 356.60 635.79 360.21 636.84 364.05 C 637.55 370.41 636.52 376.78 635.64 383.06 C 632.41 403.34 624.97 423.06 613.18 439.93 C 592.69 470.04 562.06 493.81 526.76 503.62 C 499.20 511.08 469.50 511.16 442.14 502.79 C 423.85 497.26 406.52 488.47 391.47 476.66 C 360.12 452.05 339.98 414.46 334.44 375.19 C 330.09 343.48 335.00 310.29 349.75 281.75 C 357.66 266.15 368.22 251.92 380.76 239.74 C 405.40 215.22 438.76 199.69 473.40 196.63 M 391.11 250.05 C 372.51 267.55 358.52 290.13 351.99 314.88 C 340.71 358.00 350.06 406.34 377.63 441.51 C 396.57 465.93 425.08 483.29 455.97 486.76 C 463.61 487.80 471.43 488.17 479.06 486.88 C 488.98 486.90 498.77 484.75 508.31 482.17 C 558.29 467.85 598.77 425.47 612.11 375.43 C 609.14 375.48 606.17 375.36 603.22 375.02 C 596.37 393.23 587.95 411.30 574.90 425.96 C 573.45 427.22 572.21 429.46 570.03 429.25 C 568.04 428.96 567.64 426.63 567.76 424.98 C 567.57 422.25 569.02 419.84 570.65 417.78 C 581.22 404.45 589.20 389.10 594.81 373.09 C 587.14 370.11 579.96 365.70 574.33 359.64 C 572.80 358.15 571.39 356.10 569.05 356.03 C 558.22 354.73 548.19 349.17 540.66 341.38 C 529.68 330.66 523.63 315.31 523.84 300.02 C 524.24 297.19 521.08 296.16 519.48 294.47 C 499.21 275.06 493.98 241.51 508.30 217.19 C 508.82 215.92 510.52 214.19 508.97 212.98 C 504.03 211.98 499.04 211.06 493.98 211.18 C 456.28 209.34 418.52 224.34 391.11 250.05 Z" />
<path fill="#0062af" opacity="1.00" d=" M 445.44 256.69 C 451.07 255.85 456.99 258.03 460.85 262.18 C 465.50 267.02 467.28 274.51 465.04 280.88 C 462.61 288.84 454.35 294.54 446.06 294.00 C 438.65 293.51 431.91 288.12 430.00 280.92 C 426.38 270.41 434.32 257.77 445.44 256.69 Z" />
<path fill="#0062af" opacity="1.00" d=" M 487.39 316.28 C 492.84 314.51 499.25 317.51 501.04 323.03 C 504.00 329.66 498.38 338.50 490.99 338.07 C 485.06 338.60 479.64 332.86 479.94 327.05 C 479.63 322.32 483.10 317.92 487.39 316.28 Z" />
<path fill="#0062af" opacity="1.00" d=" M 403.43 322.52 C 410.85 320.70 419.19 322.99 424.47 328.56 C 429.06 333.04 431.47 339.56 431.06 345.95 C 431.24 360.87 414.35 372.91 400.34 367.77 C 390.50 364.70 384.26 354.11 385.05 344.05 C 385.81 333.91 393.69 325.06 403.43 322.52 Z" />
<path fill="#0062af" opacity="1.00" d=" M 524.31 381.14 C 529.69 379.93 535.68 380.47 540.40 383.50 C 548.19 388.20 552.03 398.40 549.23 407.08 C 546.96 415.25 539.27 421.27 530.89 422.01 C 519.72 423.14 508.46 413.46 508.74 402.06 C 508.21 392.57 515.17 383.46 524.31 381.14 Z" />
<path fill="#0062af" opacity="1.00" d=" M 440.40 400.25 C 445.24 399.40 450.63 399.34 454.93 402.10 C 460.76 405.29 464.20 411.63 465.04 418.09 C 465.61 427.21 459.03 436.33 449.95 438.12 C 441.39 440.16 431.93 435.43 428.57 427.28 C 423.30 417.08 429.10 403.09 440.40 400.25 Z" />
<path fill="#0062af" opacity="1.00" d=" M 537.34 446.27 C 542.25 443.42 546.75 439.82 552.10 437.78 C 554.27 438.89 556.30 441.13 554.81 443.65 C 551.96 446.96 548.14 449.26 544.57 451.71 C 524.98 464.55 501.60 472.78 477.96 471.15 C 474.13 471.03 471.46 465.33 475.14 463.05 C 477.70 462.32 480.40 462.45 483.03 462.45 C 502.24 462.61 521.12 456.37 537.34 446.27 Z" />
</g>
<g id="#0bbbffff">
<path fill="#0bbbff" opacity="1.00" d=" M 584.24 203.06 C 589.53 202.94 594.82 202.99 600.12 203.01 C 601.75 202.75 603.00 204.04 603.74 205.36 C 603.92 209.89 603.62 214.44 603.75 218.98 C 603.69 221.01 604.07 223.20 602.98 225.05 C 596.42 224.92 589.85 225.23 583.30 224.91 C 582.99 224.62 582.37 224.04 582.06 223.75 C 581.85 217.58 582.02 211.40 581.98 205.23 C 582.73 204.50 583.48 203.78 584.24 203.06 Z" />
<path fill="#0bbbff" opacity="1.00" d=" M 391.11 250.05 C 418.52 224.34 456.28 209.34 493.98 211.18 C 499.04 211.06 504.03 211.98 508.97 212.98 C 510.52 214.19 508.82 215.92 508.30 217.19 C 493.98 241.51 499.21 275.06 519.48 294.47 C 521.08 296.16 524.24 297.19 523.84 300.02 C 523.63 315.31 529.68 330.66 540.66 341.38 C 548.19 349.17 558.22 354.73 569.05 356.03 C 571.39 356.10 572.80 358.15 574.33 359.64 C 579.96 365.70 587.14 370.11 594.81 373.09 C 589.20 389.10 581.22 404.45 570.65 417.78 C 569.02 419.84 567.57 422.25 567.76 424.98 C 567.64 426.63 568.04 428.96 570.03 429.25 C 572.21 429.46 573.45 427.22 574.90 425.96 C 587.95 411.30 596.37 393.23 603.22 375.02 C 606.17 375.36 609.14 375.48 612.11 375.43 C 598.77 425.47 558.29 467.85 508.31 482.17 C 498.77 484.75 488.98 486.90 479.06 486.88 C 471.43 488.17 463.61 487.80 455.97 486.76 C 425.08 483.29 396.57 465.93 377.63 441.51 C 350.06 406.34 340.71 358.00 351.99 314.88 C 358.52 290.13 372.51 267.55 391.11 250.05 M 445.44 256.69 C 434.32 257.77 426.38 270.41 430.00 280.92 C 431.91 288.12 438.65 293.51 446.06 294.00 C 454.35 294.54 462.61 288.84 465.04 280.88 C 467.28 274.51 465.50 267.02 460.85 262.18 C 456.99 258.03 451.07 255.85 445.44 256.69 M 487.39 316.28 C 483.10 317.92 479.63 322.32 479.94 327.05 C 479.64 332.86 485.06 338.60 490.99 338.07 C 498.38 338.50 504.00 329.66 501.04 323.03 C 499.25 317.51 492.84 314.51 487.39 316.28 M 403.43 322.52 C 393.69 325.06 385.81 333.91 385.05 344.05 C 384.26 354.11 390.50 364.70 400.34 367.77 C 414.35 372.91 431.24 360.87 431.06 345.95 C 431.47 339.56 429.06 333.04 424.47 328.56 C 419.19 322.99 410.85 320.70 403.43 322.52 M 524.31 381.14 C 515.17 383.46 508.21 392.57 508.74 402.06 C 508.46 413.46 519.72 423.14 530.89 422.01 C 539.27 421.27 546.96 415.25 549.23 407.08 C 552.03 398.40 548.19 388.20 540.40 383.50 C 535.68 380.47 529.69 379.93 524.31 381.14 M 440.40 400.25 C 429.10 403.09 423.30 417.08 428.57 427.28 C 431.93 435.43 441.39 440.16 449.95 438.12 C 459.03 436.33 465.61 427.21 465.04 418.09 C 464.20 411.63 460.76 405.29 454.93 402.10 C 450.63 399.34 445.24 399.40 440.40 400.25 M 537.34 446.27 C 521.12 456.37 502.24 462.61 483.03 462.45 C 480.40 462.45 477.70 462.32 475.14 463.05 C 471.46 465.33 474.13 471.03 477.96 471.15 C 501.60 472.78 524.98 464.55 544.57 451.71 C 548.14 449.26 551.96 446.96 554.81 443.65 C 556.30 441.13 554.27 438.89 552.10 437.78 C 546.75 439.82 542.25 443.42 537.34 446.27 Z" />
<path fill="#0bbbff" opacity="1.00" d=" M 546.00 237.94 C 545.85 235.82 547.38 234.18 548.89 232.93 C 557.28 233.15 565.68 232.84 574.06 233.07 C 576.06 233.71 577.96 235.68 577.76 237.92 C 577.69 245.96 577.75 254.01 577.73 262.05 C 577.80 264.04 576.26 266.46 574.04 266.02 C 565.74 266.06 557.44 265.96 549.14 266.05 C 547.59 264.79 545.79 263.26 546.00 261.04 C 545.98 253.34 545.99 245.64 546.00 237.94 Z" />
<path fill="#0bbbff" opacity="1.00" d=" M 612.12 246.08 C 618.09 245.86 624.08 246.07 630.06 245.98 C 631.51 245.84 633.64 246.27 633.92 247.98 C 634.17 254.30 633.86 260.63 634.05 266.95 C 633.07 267.65 632.40 269.18 631.01 269.00 C 624.73 269.02 618.43 269.12 612.15 268.92 C 611.88 268.64 611.33 268.09 611.06 267.81 C 610.90 260.88 610.94 253.92 611.05 246.99 C 611.32 246.76 611.85 246.30 612.12 246.08 Z" />
<path fill="#0bbbff" opacity="1.00" d=" M 584.17 282.95 C 596.45 282.50 608.75 282.89 621.04 282.76 C 623.28 282.89 626.06 282.35 627.70 284.32 C 628.98 285.55 629.11 287.35 629.06 289.03 C 629.00 299.69 629.04 310.36 629.02 321.02 C 629.35 324.30 626.37 327.57 623.00 327.05 C 610.99 327.10 598.98 327.08 586.98 327.06 C 583.55 327.57 581.14 324.08 581.14 320.98 C 581.13 310.00 581.11 299.02 581.23 288.04 C 581.15 285.90 582.89 284.43 584.17 282.95 Z" />
</g>
<g id="#004184ff">
<path fill="#004184" opacity="1.00" d=" M 168.21 565.21 C 178.81 554.49 194.00 549.00 208.94 548.98 C 223.04 548.59 237.63 552.31 248.79 561.19 C 255.42 566.31 260.66 573.14 264.18 580.72 C 257.01 583.75 250.05 587.29 243.06 590.67 L 243.11 590.07 C 239.27 581.58 231.96 574.52 222.96 571.79 C 213.99 569.30 204.17 569.89 195.61 573.55 C 185.11 578.24 178.35 588.92 176.46 600.02 C 175.08 609.63 175.64 619.92 180.27 628.65 C 185.19 638.53 195.17 645.49 206.06 647.03 C 219.73 649.51 234.98 643.28 241.96 631.03 C 242.46 629.26 244.32 629.91 245.38 630.64 C 251.56 633.63 257.74 636.63 263.98 639.51 C 258.08 652.81 245.42 661.79 231.99 666.42 C 221.43 669.72 210.11 670.33 199.21 668.53 C 184.61 666.03 170.89 657.80 162.42 645.56 C 152.85 631.90 148.98 614.41 151.81 597.99 C 153.64 585.68 159.64 574.16 168.21 565.21 Z" />
<path fill="#004184" opacity="1.00" d=" M 518.35 557.93 C 525.96 558.07 533.57 557.98 541.18 557.99 C 540.96 565.98 541.22 573.97 541.07 581.96 C 548.38 582.04 555.69 581.98 563.01 582.00 C 562.98 588.31 563.04 594.63 563.00 600.94 C 555.69 600.73 548.37 600.87 541.07 600.83 C 541.14 612.56 541.07 624.28 541.09 636.01 C 541.27 640.56 542.22 645.92 546.41 648.54 C 551.48 651.44 557.68 650.35 563.00 648.76 C 562.99 654.80 563.01 660.84 563.00 666.88 C 555.91 669.11 548.38 669.71 541.02 668.75 C 534.03 667.40 527.40 663.55 523.53 657.48 C 519.12 650.88 518.39 642.69 518.31 634.97 C 518.37 623.58 518.21 612.18 518.42 600.79 C 514.48 600.83 510.52 600.63 506.59 601.09 C 506.96 594.73 506.64 588.36 506.75 582.00 C 510.67 582.00 514.58 582.00 518.50 582.00 C 518.65 573.98 518.66 565.95 518.35 557.93 Z" />
<path fill="#004184" opacity="1.00" d=" M 739.00 579.00 C 746.34 579.00 753.68 579.00 761.03 579.00 C 760.93 615.21 761.23 651.43 760.87 687.64 C 753.54 687.19 746.17 687.52 738.83 687.53 C 739.22 651.36 738.89 615.17 739.00 579.00 Z" />
<path fill="#004184" opacity="1.00" d=" M 775.64 579.00 C 806.88 579.00 838.12 579.00 869.36 579.00 C 869.43 586.01 869.20 593.03 869.53 600.04 C 857.56 599.78 845.58 600.12 833.61 599.86 C 833.16 629.06 833.58 658.28 833.44 687.49 C 826.17 687.47 818.90 687.48 811.64 687.44 C 811.50 658.27 811.68 629.11 811.57 599.94 C 799.53 600.10 787.48 599.73 775.45 600.11 C 775.78 593.07 775.47 586.03 775.64 579.00 Z" />
<path fill="#004184" opacity="1.00" d=" M 441.92 586.82 C 449.00 581.41 458.19 579.56 466.96 579.98 C 477.04 580.59 487.77 583.43 494.83 591.12 C 496.51 593.05 498.63 595.12 498.99 597.73 C 494.22 601.23 489.14 604.43 483.91 607.21 C 481.85 606.02 480.60 603.77 478.81 602.22 C 473.54 596.47 463.89 595.08 457.45 599.63 C 455.14 601.16 453.68 604.23 454.62 606.95 C 455.24 610.26 458.86 611.47 461.62 612.50 C 470.54 615.21 479.90 616.69 488.39 620.69 C 494.04 623.34 499.08 628.19 500.44 634.46 C 502.47 643.64 499.56 654.05 492.37 660.30 C 483.49 668.36 470.65 670.83 459.04 669.14 C 447.45 667.90 435.77 661.84 430.22 651.23 C 435.28 646.90 441.16 643.64 446.63 639.86 C 449.77 645.54 455.31 650.18 461.91 650.95 C 466.33 651.28 471.24 651.77 475.15 649.22 C 478.27 647.34 480.21 643.04 478.26 639.68 C 476.84 636.41 473.21 635.12 470.06 634.18 C 460.54 631.69 450.64 629.82 442.02 624.86 C 435.83 621.30 432.44 613.98 432.95 606.96 C 432.45 599.32 435.73 591.44 441.92 586.82 Z" />
<path fill="#004184" opacity="1.00" d=" M 306.01 584.02 C 312.91 580.43 320.87 580.94 328.40 581.03 C 328.34 588.05 328.57 595.09 328.26 602.11 C 320.34 600.29 311.29 601.60 304.99 607.01 C 300.68 610.67 298.83 616.51 298.99 622.03 C 299.01 637.02 298.99 652.01 299.00 667.00 C 291.33 667.00 283.67 667.00 276.00 667.00 C 276.00 638.67 276.01 610.33 275.99 582.00 C 282.62 582.00 289.25 582.00 295.88 582.00 C 296.21 585.09 297.17 588.09 297.09 591.23 C 299.79 588.52 302.45 585.61 306.01 584.02 Z" />
<path fill="#004184" opacity="1.00" d=" M 338.97 582.00 C 346.50 582.00 354.03 582.01 361.56 581.99 C 361.13 593.31 361.51 604.65 361.39 615.98 C 361.61 622.65 360.98 629.36 361.76 636.01 C 362.32 640.51 364.81 644.94 368.95 647.04 C 375.11 650.02 382.81 648.95 388.30 645.00 C 393.02 641.57 395.47 635.74 395.97 630.07 C 396.04 614.04 395.98 598.02 396.00 582.00 C 403.86 582.00 411.72 582.00 419.58 582.00 C 419.55 610.33 419.43 638.67 419.68 667.00 C 412.14 666.99 404.60 667.01 397.06 666.99 C 396.98 663.88 396.96 660.76 396.81 657.66 C 394.18 659.72 392.45 662.77 389.45 664.43 C 378.85 671.78 363.73 670.99 353.25 663.78 C 343.80 657.58 339.10 646.04 338.98 635.02 C 339.01 617.35 339.02 599.67 338.97 582.00 Z" />
<path fill="#004184" opacity="1.00" d=" M 570.88 581.99 C 579.31 581.97 587.75 582.07 596.19 581.93 C 603.65 601.00 611.17 620.06 618.47 639.19 C 625.36 620.12 632.77 601.23 639.23 582.00 C 647.48 581.99 655.73 582.02 663.98 581.98 C 651.52 612.72 638.31 643.14 626.24 674.04 C 622.62 683.60 617.85 693.27 609.61 699.69 C 604.55 703.52 598.30 705.90 591.94 706.04 C 587.42 705.95 582.90 706.05 578.38 706.13 C 578.59 699.72 578.64 693.31 578.43 686.91 C 586.14 687.09 594.86 685.97 599.96 679.49 C 602.62 677.72 603.42 674.54 604.68 671.81 C 605.62 669.54 606.86 667.17 606.27 664.64 C 599.00 646.80 591.11 629.21 583.65 611.45 C 579.34 601.65 575.39 591.70 570.88 581.99 Z" />
</g>
<g id="#647aa8ff">
<path fill="#647aa8" opacity="1.00" d=" M 518.50 582.00 C 517.87 574.01 518.20 565.94 518.35 557.93 C 518.66 565.95 518.65 573.98 518.50 582.00 Z" />
<path fill="#647aa8" opacity="1.00" d=" M 775.06 579.05 L 775.64 579.00 C 775.47 586.03 775.78 593.07 775.45 600.11 C 774.80 593.11 775.55 586.06 775.06 579.05 Z" />
<path fill="#647aa8" opacity="1.00" d=" M 811.57 599.94 C 811.68 629.11 811.50 658.27 811.64 687.44 C 818.90 687.48 826.17 687.47 833.44 687.49 C 833.58 658.28 833.16 629.06 833.61 599.86 C 834.44 605.85 833.87 611.91 833.96 617.94 C 833.99 641.27 833.84 664.60 833.98 687.94 C 826.38 687.83 818.77 688.09 811.17 687.84 C 811.60 658.55 810.80 629.21 811.57 599.94 Z" />
<path fill="#647aa8" opacity="1.00" d=" M 578.00 686.86 L 578.43 686.91 C 578.64 693.31 578.59 699.72 578.38 706.13 C 582.90 706.05 587.42 705.95 591.94 706.04 C 587.39 707.56 582.63 706.52 578.00 706.12 C 578.08 699.70 578.02 693.28 578.00 686.86 Z" />
</g>
<g id="#4b6599ff">
<path fill="#4b6599" opacity="1.00" d=" M 869.36 579.00 L 869.98 579.00 C 869.47 586.00 870.18 593.05 869.53 600.04 C 869.20 593.03 869.43 586.01 869.36 579.00 Z" />
<path fill="#4b6599" opacity="1.00" d=" M 328.40 581.03 C 329.47 587.90 328.36 595.03 328.97 602.00 L 328.26 602.11 C 328.57 595.09 328.34 588.05 328.40 581.03 Z" />
<path fill="#4b6599" opacity="1.00" d=" M 738.83 687.53 C 746.17 687.52 753.54 687.19 760.87 687.64 L 761.47 687.82 C 753.94 687.80 746.30 688.24 738.83 687.53 Z" />
</g>
<g id="#8091b5ff">
<path fill="#8091b5" opacity="1.00" d=" M 361.56 581.99 C 361.80 600.00 361.62 618.01 361.76 636.01 C 360.98 629.36 361.61 622.65 361.39 615.98 C 361.51 604.65 361.13 593.31 361.56 581.99 Z" />
</g>
<g id="#a2b1cdff">
<path fill="#a2b1cd" opacity="1.00" d=" M 506.16 582.07 L 506.75 582.00 C 506.64 588.36 506.96 594.73 506.59 601.09 C 506.07 594.77 506.74 588.40 506.16 582.07 Z" />
</g>
<g id="#214787ff">
<path fill="#214787" opacity="1.00" d=" M 606.27 664.64 C 606.86 667.17 605.62 669.54 604.68 671.81 C 603.42 674.54 602.62 677.72 599.96 679.49 C 602.51 674.73 604.32 669.66 606.27 664.64 Z" />
</g>
</svg>
